<svg width="200" height="200" viewBox="0 0 200 200" fill="none" xmlns="http://www.w3.org/2000/svg">
<g clip-path="url(#clip0)">
<g filter="url(#filter0_i)">
<path d="M50.6025 14.3013L93.9038 89.3013H7.30127L50.6025 14.3013Z" fill="#FDC826"/>
<path d="M50.6025 14.3013L137.205 14.3013L93.9038 89.3013L50.6025 14.3013Z" fill="#FDC826"/>
<path d="M93.7532 89.0403L180.356 89.0403L137.054 164.04L93.7532 89.0403Z" fill="#FDC826"/>
<path d="M93.7532 89.0403L137.054 14.0403L180.356 89.0403L93.7532 89.0403Z" fill="#FDC826"/>
<path d="M50.4519 164.04L93.7532 89.0403L137.054 164.04L50.4519 164.04Z" fill="#FDC826"/>
<path d="M50.4519 164.04L7.15064 89.0403L93.7532 89.0403L50.4519 164.04Z" fill="#FDC826"/>
</g>
<g clip-path="url(#clip1)">
<path d="M65.5917 82.6279C61.9804 82.6279 59.0529 85.5555 59.0529 89.1666L56.6992 103.32L59.0529 116.31C59.0529 119.922 61.9804 122.849 65.5917 122.849C69.203 122.849 72.1306 119.921 72.1306 116.31V89.1666C72.1306 85.5553 69.203 82.6279 65.5917 82.6279V82.6279Z" fill="#5F6C75"/>
<path d="M68.6093 122.111C67.7058 122.584 66.6797 122.849 65.5912 122.849C61.9795 122.849 59.0539 119.922 59.0539 116.31L55.158 100.614L59.0539 89.1672C59.0539 85.5555 61.9795 82.6279 65.5912 82.6279C66.6797 82.6279 67.7058 82.8935 68.6093 83.3664C66.5167 84.4549 65.0902 86.644 65.0902 89.1672V116.31C65.0902 118.833 66.5167 121.022 68.6093 122.111V122.111Z" fill="#4E5A61"/>
<path d="M129.288 135.702L99.4052 136.616C97.5324 136.616 95.9207 135.177 95.8326 133.306C95.7384 131.308 97.3302 129.659 99.3068 129.659H125.468C127.389 129.659 129.858 127.965 129.858 126.044L128.946 109.087C128.946 107.214 130.385 105.602 132.256 105.514C134.254 105.42 135.903 107.012 135.903 108.988V130.094C135.903 133.696 132.89 135.702 129.288 135.702V135.702Z" fill="#E0F5FC"/>
<path d="M135.903 128.288V130.095C135.903 133.696 132.984 136.616 129.382 136.616H99.4061C97.5329 136.616 95.9212 135.177 95.8326 133.306C95.7964 132.543 96.0057 131.831 96.392 131.242C96.9795 132.409 98.223 133.195 99.6073 133.195H129.583C132.627 133.195 135.185 131.109 135.903 128.288Z" fill="#D3EFFD"/>
<path d="M135.903 108.988C135.903 107.736 135.239 106.64 134.245 106.028C134.246 106.027 134.246 106.027 134.247 106.026C134.168 105.978 134.087 105.933 134.004 105.891C133.982 105.879 133.959 105.87 133.937 105.859C133.865 105.824 133.791 105.791 133.716 105.761C133.686 105.749 133.656 105.737 133.625 105.726C133.545 105.697 133.464 105.67 133.381 105.647C133.361 105.641 133.342 105.634 133.323 105.629C133.223 105.602 133.121 105.581 133.018 105.563C132.987 105.558 132.956 105.554 132.924 105.55C132.846 105.538 132.767 105.53 132.688 105.524C132.654 105.521 132.621 105.518 132.587 105.517C132.478 105.512 132.368 105.51 132.257 105.515C130.386 105.602 128.945 107.213 128.945 109.087V122.167V126.181C128.945 128.103 127.39 129.66 125.468 129.66H129.09C131.01 129.66 132.567 128.103 132.567 126.183V121.019C132.567 120.635 132.785 120.285 133.13 120.116L135.903 118.757V108.988H135.903Z" fill="#D3EFFD"/>
<path d="M139.453 90.746L136.812 89.4514C136.432 89.2651 136.193 88.876 136.197 88.4526C136.222 85.912 136.183 83.8621 136.199 83.5072C136.199 77.1213 134.777 71.0615 132.233 65.6279C125.515 51.279 107.857 41.7337 91.0157 41.6392C91.0157 41.6392 52.4359 60.6084 52.565 83.7911V88.3557C52.565 88.8418 52.2986 89.2881 51.8701 89.5178C51.0397 89.9631 50.4314 90.9168 50.221 91.0498C48.7149 91.7882 47.7602 93.3194 47.7602 94.9967L47.2465 108.39C47.2465 110.067 48.201 111.598 49.7073 112.337L59.0528 117.684C59.0528 114.277 59.0528 86.4862 59.0528 83.846C59.0528 64.4718 74.6266 48.5106 93.9994 48.4508C113.372 48.5106 128.946 64.472 128.946 83.846V117.684L138.141 112.704C139.647 111.965 141.155 110.614 141.155 108.936L141.914 107.308V94.6929C141.914 93.0156 140.959 91.4844 139.453 90.746V90.746Z" fill="#5F6C75"/>
<path d="M122.407 82.6279C126.019 82.6279 128.946 85.5555 128.946 89.1666L130.686 103.594L128.946 116.31C128.946 119.922 126.019 122.849 122.407 122.849C118.796 122.849 115.869 119.921 115.869 116.31V89.1666C115.869 85.5553 118.796 82.6279 122.407 82.6279V82.6279Z" fill="#5F6C75"/>
<path d="M123.82 120.934C124.289 121.403 124.831 121.801 125.426 122.111C124.523 122.584 123.497 122.849 122.408 122.849C120.603 122.849 118.967 122.117 117.784 120.934C116.601 119.751 115.869 118.115 115.869 116.31V89.1672C115.869 85.5555 118.796 82.6279 122.408 82.6279C123.497 82.6279 124.523 82.8935 125.426 83.3664C123.334 84.4549 121.905 86.644 121.905 89.1672V116.31C121.905 118.115 122.637 119.751 123.82 120.934V120.934Z" fill="#4E5A61"/>
<path d="M132.233 65.6279C125.515 51.2798 110.971 41.2959 94.1304 41.2014V41.1973C77.5569 41.0122 62.8668 51.0525 55.8869 65.2637C53.1022 70.9317 51.5429 77.2637 51.5811 83.8734V88.4368C51.5811 88.9237 51.3135 89.3704 50.8849 89.5998C50.0559 90.0444 48.7561 90.6138 48.5469 90.7466C47.0398 91.4851 46.0861 93.0163 46.0861 94.6923V108.586C46.0861 110.264 47.0398 111.795 48.5469 112.533L59.0539 117.684V113.562L50.0519 109.461C49.7199 109.3 49.5066 108.956 49.5066 108.586V94.6923C49.5561 93.5271 51.6427 93.2521 52.5026 92.6138C54.0439 91.7869 55.0016 90.1873 55.0016 88.4368V83.8734C54.9676 78.7428 55.9825 73.6877 57.9755 68.9277C58.1956 68.4018 58.8833 68.2674 59.2855 68.6714C60.0066 69.3959 60.8213 70.1523 61.6535 70.4831C66.8628 57.644 79.3437 48.4971 93.9996 48.4509C108.718 48.4971 121.243 57.7205 126.41 70.646C128.046 74.7346 128.945 79.1913 128.945 83.8472V117.684L139.452 112.533C140.959 111.795 141.913 110.264 141.913 108.586V107.308L134.123 111.297C133.32 111.709 132.366 111.125 132.366 110.223V83.8472C132.366 78.5744 131.316 73.5426 129.415 68.9533C129.285 68.64 129.361 68.2794 129.61 68.0495L132.233 65.6279Z" fill="#4E5A61"/>
<path d="M62.6926 66.3769C63.6805 67.3648 65.3389 67.1956 66.0847 66.0141C67.7682 63.3477 69.8246 60.9388 72.1799 58.8618C77.9735 53.7523 85.5759 50.6487 93.8898 50.6487C101.817 50.6487 109.097 53.47 114.779 58.1614C117.535 60.4368 119.915 63.1521 121.811 66.1988C122.542 67.3744 124.152 67.6099 125.17 66.6708L130.585 61.6736C131.379 60.9412 131.521 59.7398 130.921 58.8418C127.838 54.228 123.916 50.2199 119.376 47.0374C112.152 41.974 103.362 39 93.8898 39C83.0407 39 73.0858 42.9018 65.3548 49.3761C62.2483 51.9773 59.501 54.9938 57.1988 58.3394C56.5984 59.2119 56.7039 60.3885 57.4528 61.1372L62.6926 66.3769Z" fill="#F9AF38"/>
<path d="M126.169 65.7485L125.171 66.6701C124.153 67.6097 122.541 67.3743 121.81 66.1992C119.915 63.153 117.535 60.4367 114.778 58.161C109.096 53.4709 101.817 50.6479 93.8889 50.6479C85.5751 50.6479 77.9734 53.7526 72.1807 58.8612C69.8246 60.9397 67.7682 63.3481 66.0841 66.0141C65.3396 67.1952 63.6797 67.3642 62.6918 66.3763L61.4986 65.1831C63.6817 62.3501 67.7582 57.3964 69.5187 55.8431C76.2592 49.8994 84.9151 46.6238 93.8889 46.6238C102.426 46.6238 110.754 49.6198 117.342 55.0584C119.68 56.99 124.016 62.7485 126.169 65.7485V65.7485Z" fill="#F48931"/>
<path d="M106.016 104.762C106.012 104.762 106.008 104.762 106.003 104.762C105.17 104.754 104.5 104.073 104.507 103.24C104.519 101.869 104.531 100.324 104.542 98.7226H95.8288C95.295 98.7226 94.8008 98.4405 94.5294 97.9808C94.2579 97.521 94.2497 96.952 94.5076 96.4846C95.6547 94.4055 101.435 83.9625 102.585 82.551C103.822 81.0331 105.128 81.2323 105.632 81.3884C106.701 81.7196 107.463 82.7776 107.571 84.0838C107.633 84.8218 107.612 90.6389 107.581 95.7045H108.678C109.512 95.7045 110.188 96.3802 110.188 97.2136C110.188 98.047 109.512 98.7226 108.678 98.7226H107.561C107.545 100.973 107.53 102.73 107.525 103.266C107.518 104.095 106.844 104.761 106.016 104.762V104.762ZM98.3907 95.7043H104.562C104.59 91.0888 104.605 86.6077 104.581 84.9516C103.493 86.6351 100.657 91.6351 98.3907 95.7043V95.7043Z" fill="#B3E59F"/>
<path d="M84.028 104.966C80.1378 104.966 79.861 104.873 79.6575 104.805C79.1441 104.634 78.761 104.248 78.6066 103.746C78.3338 102.859 78.7079 102.369 79.9477 100.746C80.9903 99.3803 82.931 96.8391 86.1815 92.1948C87.1859 90.7596 87.8332 89.4656 88.1066 88.3469L88.1845 87.7383C88.1374 85.7238 86.4841 84.0997 84.4588 84.0997C82.6815 84.0997 81.1437 85.3624 80.802 87.1025C80.6415 87.9202 79.8483 88.4526 79.0304 88.2924C78.2127 88.1318 77.6799 87.3387 77.8404 86.5208C78.4596 83.3691 81.2429 81.0815 84.4588 81.0815C88.1779 81.0815 91.2036 84.1073 91.2036 87.8264C91.2036 87.8904 91.1996 87.9544 91.1914 88.0178L91.0901 88.8093C91.0837 88.8596 91.0749 88.9095 91.0634 88.9588C90.7127 90.4715 89.9022 92.1425 88.6541 93.9256C85.8165 97.9797 83.9638 100.452 82.831 101.942C84.8477 101.951 87.794 101.932 90.5429 101.897C91.3843 101.892 92.0604 102.553 92.0708 103.387C92.0813 104.22 91.4141 104.904 90.5809 104.915C87.6817 104.951 85.5704 104.966 84.028 104.966V104.966Z" fill="#B3E59F"/>
<path d="M103.242 138.322L93.2419 138.356C92.1306 138.356 91.2298 137.455 91.2298 136.344L90.8445 129.965C90.8445 128.854 91.7453 127.953 92.8566 127.953L93.8487 127.261H96.8386L98.5161 128.492L99.8568 127.261H104.053C105.164 127.261 106.065 128.162 106.065 129.273V135.579L105.254 136.309C105.254 137.421 104.354 138.322 103.242 138.322Z" fill="#5F6C75"/>
<path d="M106.064 135.58V136.988C106.064 138.099 105.165 139 104.052 139H92.6414C91.5307 139 90.6293 138.099 90.6293 136.988V129.274C90.6293 128.161 91.5307 127.262 92.6414 127.262H93.8486V133.568C93.8486 134.678 94.7501 135.58 95.8607 135.58H106.064Z" fill="#4E5A61"/>
<path d="M96.8387 127.262H99.8568V139H96.8387V127.262Z" fill="#4E5A61"/>
</g>
</g>
<defs>
<filter id="filter0_i" x="7.15063" y="-23.1987" width="173.205" height="228.739" filterUnits="userSpaceOnUse" color-interpolation-filters="sRGB">
<feFlood flood-opacity="0" result="BackgroundImageFix"/>
<feBlend mode="normal" in="SourceGraphic" in2="BackgroundImageFix" result="shape"/>
<feColorMatrix in="SourceAlpha" type="matrix" values="0 0 0 0 0 0 0 0 0 0 0 0 0 0 0 0 0 0 127 0" result="hardAlpha"/>
<feOffset dy="4"/>
<feGaussianBlur stdDeviation="2"/>
<feComposite in2="hardAlpha" operator="arithmetic" k2="-1" k3="1"/>
<feColorMatrix type="matrix" values="0 0 0 0 0 0 0 0 0 0 0 0 0 0 0 0 0 0 0.25 0"/>
<feBlend mode="normal" in2="shape" result="effect1_innerShadow"/>
</filter>
<clipPath id="clip0">
<rect width="200" height="200" fill="white"/>
</clipPath>
<clipPath id="clip1">
<rect width="100" height="100" fill="white" transform="translate(44 39)"/>
</clipPath>
</defs>
</svg>
