<svg width="50" height="50" viewBox="0 0 50 50" fill="none" xmlns="http://www.w3.org/2000/svg">
<g clip-path="url(#clip0)">
<path d="M19.046 46.9796C16.6222 46.9796 14.6507 45.0077 14.6507 42.5843C14.6507 40.1604 16.6222 38.189 19.046 38.189C21.4695 38.189 23.4409 40.1604 23.4409 42.5843C23.4409 45.0077 21.4695 46.9796 19.046 46.9796Z" fill="#697C86"/>
<path d="M19.046 44.0491C18.2377 44.0491 17.5808 43.3926 17.5808 42.5842C17.5808 41.7759 18.2377 41.119 19.046 41.119C19.8544 41.119 20.5109 41.7759 20.5109 42.5842C20.5109 43.3926 19.8544 44.0491 19.046 44.0491Z" fill="#465A61"/>
<path d="M39.7522 46.9796C37.3288 46.9796 35.3569 45.0077 35.3569 42.5843C35.3569 40.1604 37.3288 38.189 39.7522 38.189C42.1757 38.189 44.1475 40.1604 44.1475 42.5843C44.1475 45.0077 42.1757 46.9796 39.7522 46.9796Z" fill="#596C76"/>
<path d="M39.7522 44.0491C38.9439 44.0491 38.287 43.3926 38.287 42.5842C38.287 41.7759 38.9439 41.119 39.7522 41.119C40.5606 41.119 41.2171 41.7759 41.2171 42.5842C41.2171 43.3926 40.5606 44.0491 39.7522 44.0491Z" fill="#3B4A51"/>
<path d="M44.3817 36.7237C44.3817 37.5442 43.737 38.1889 42.9169 38.1889H14.8853C12.4531 38.1889 10.49 36.2255 10.49 33.7936C10.49 31.567 12.1307 29.7207 14.299 29.4571C14.4749 29.3983 14.6801 29.3983 14.8853 29.3983C15.2367 29.3983 15.5884 29.5452 15.823 29.7794L14.9437 32.3288C14.9147 32.3288 14.9147 32.3288 14.8853 32.3288C14.0648 32.3288 13.4201 32.9731 13.4201 33.7936C13.4201 34.6142 14.0648 35.2588 14.8853 35.2588H42.9169C43.737 35.2588 44.3817 35.9031 44.3817 36.7237Z" fill="#465A61"/>
<path d="M9.72291 8.89092C9.81599 9.00803 11.3937 9.72062 12.9822 10.4183C12.9879 10.2921 13.0039 10.1669 12.9753 10.038L11.6863 4.17748C11.5387 3.50494 10.9436 3.02734 10.2554 3.02734H1.46523C0.655366 3.02734 0 3.68271 0 4.49257C0 5.30205 0.655366 5.95742 1.46523 5.95742H9.07784L9.72291 8.89092Z" fill="#465A61"/>
<path d="M44.3817 36.7237C44.3817 37.5442 43.737 38.1889 42.9169 38.1889H29.1351V35.2589H42.9169C43.737 35.2589 44.3817 35.9032 44.3817 36.7237Z" fill="#3B4A51"/>
<path d="M49.7147 9.47377C49.4217 9.09268 49.0113 8.88745 48.5425 8.88745H9.72787L14.299 29.4571L14.9437 32.3288H42.6823C43.327 32.3288 43.9129 31.889 44.0888 31.2736L49.9489 10.7628C50.0664 10.3233 49.9783 9.8251 49.7147 9.47377Z" fill="#FDBF00"/>
<path d="M49.9489 10.7628L44.0888 31.2736C43.9129 31.889 43.327 32.3288 42.6823 32.3288H29.1351V8.88745H48.5424C49.0112 8.88745 49.4217 9.09268 49.7147 9.47377C49.9783 9.8251 50.0664 10.3233 49.9489 10.7628Z" fill="#FF9F00"/>
</g>
<defs>
<clipPath id="clip0">
<rect width="50" height="50" fill="white"/>
</clipPath>
</defs>
</svg>
