<svg width="200" height="200" viewBox="0 0 200 200" fill="none" xmlns="http://www.w3.org/2000/svg">
<g clip-path="url(#clip0)">
<g filter="url(#filter0_i)">
<path d="M50.6025 14.3013L93.9038 89.3013H7.30127L50.6025 14.3013Z" fill="#FDC826"/>
<path d="M50.6025 14.3013L137.205 14.3013L93.9038 89.3013L50.6025 14.3013Z" fill="#FDC826"/>
<path d="M93.7532 89.0403L180.356 89.0403L137.054 164.04L93.7532 89.0403Z" fill="#FDC826"/>
<path d="M93.7532 89.0403L137.054 14.0403L180.356 89.0403L93.7532 89.0403Z" fill="#FDC826"/>
<path d="M50.4519 164.04L93.7532 89.0403L137.054 164.04L50.4519 164.04Z" fill="#FDC826"/>
<path d="M50.4519 164.04L7.15064 89.0403L93.7532 89.0403L50.4519 164.04Z" fill="#FDC826"/>
</g>
<path d="M89.8598 49.9375C88.2022 49.9375 86.6125 50.5961 85.4405 51.7682L68.5209 68.6875V84.3125H115.396C120.574 84.3125 124.771 80.1152 124.771 74.9375H131.021V49.9375H89.8598Z" fill="#F0915A"/>
<path d="M140.396 79.625V45.25H135.708C133.12 45.25 131.021 47.3486 131.021 49.9375V74.9375C131.021 77.5264 133.12 79.625 135.708 79.625H140.396Z" fill="#555A6E"/>
<path d="M135.708 65.5625V79.625H140.396V62.4375H138.833C137.107 62.4375 135.708 63.8367 135.708 65.5625Z" fill="#463C4B"/>
<path d="M127.896 93.6875V60.875C127.896 59.149 126.497 57.75 124.771 57.75H62.2709C60.545 57.75 59.1459 59.149 59.1459 60.875V93.6875C59.1459 95.4135 60.545 96.8125 62.2709 96.8125H124.771C126.497 96.8125 127.896 95.4135 127.896 93.6875Z" fill="#78AF41"/>
<path d="M63.8334 85.875V68.6875C63.8334 67.8246 64.533 67.125 65.3959 67.125C67.1219 67.125 68.5209 65.726 68.5209 64C68.5209 63.1371 69.2205 62.4375 70.0834 62.4375H116.958C117.821 62.4375 118.521 63.1371 118.521 64C118.521 65.726 119.92 67.125 121.646 67.125C122.509 67.125 123.208 67.8246 123.208 68.6875V85.875C123.208 86.7379 122.509 87.4375 121.646 87.4375C119.92 87.4375 118.521 88.8365 118.521 90.5625C118.521 91.4254 117.821 92.125 116.958 92.125H70.0834C69.2205 92.125 68.5209 91.4254 68.5209 90.5625C68.5209 88.8365 67.1219 87.4375 65.3959 87.4375C64.5328 87.4375 63.8334 86.7379 63.8334 85.875V85.875Z" fill="#466932"/>
<path d="M93.5209 89C99.993 89 105.24 83.7533 105.24 77.2812C105.24 70.8092 99.993 65.5625 93.5209 65.5625C87.0488 65.5625 81.8022 70.8092 81.8022 77.2812C81.8022 83.7533 87.0488 89 93.5209 89Z" fill="#78AF41"/>
<path d="M97.9403 51.7682L83.2305 66.4779C82.0102 67.6982 82.0102 69.677 83.2305 70.8973L83.7666 71.4334C87.4278 75.0945 93.3637 75.0945 97.0248 71.4334L102.896 65.5625H115.396C120.574 65.5625 124.771 61.3652 124.771 56.1875V49.9375H102.36C100.702 49.9375 99.1123 50.5961 97.9403 51.7682V51.7682Z" fill="#FAB991"/>
<path d="M83.625 66.0834C85.4947 67.9531 88.5262 67.9531 90.3959 66.0834C90.8273 65.6519 90.8273 64.9523 90.3959 64.5209L87.7918 61.9167L83.625 66.0834Z" fill="#F0915A"/>
<path d="M93.5209 104.625H79.4432C77.7855 104.625 76.1959 105.283 75.0238 106.456L68 113.479L76.8543 122.333L81.1473 118.04C81.7334 117.454 82.5281 117.125 83.357 117.125H93.5209C96.9727 117.125 99.7709 114.327 99.7709 110.875C99.7709 107.423 96.9727 104.625 93.5209 104.625V104.625Z" fill="#FAB991"/>
<path d="M121.835 104.435C120.005 102.605 117.037 102.605 115.206 104.435L102.517 117.125H83.3569C82.5282 117.125 81.7332 117.454 81.1471 118.04L76.8541 122.333L83.625 129.104L86.2291 126.5H104.458C105.702 126.5 106.894 126.006 107.773 125.127L121.835 111.065C123.666 109.234 123.666 106.266 121.835 104.435V104.435Z" fill="#F0915A"/>
<path d="M83.1041 132.75H45.6041L65.3326 113.022C65.9428 112.411 66.9322 112.411 67.5424 113.022L84.0826 129.562C84.6928 130.172 84.6928 131.161 84.0826 131.772L83.1041 132.75Z" fill="#555A6E"/>
<path d="M76.8541 122.333L66.4375 132.75H83.1041L84.0826 131.772C84.6928 131.161 84.6928 130.172 84.0826 129.562L76.8541 122.333Z" fill="#463C4B"/>
<path d="M93.5209 114H91.9584C91.0955 114 90.3959 113.3 90.3959 112.438V109.312C90.3959 108.45 91.0955 107.75 91.9584 107.75H93.5209C95.2469 107.75 96.6459 109.149 96.6459 110.875C96.6459 112.601 95.2467 114 93.5209 114Z" fill="#F0915A"/>
</g>
<defs>
<filter id="filter0_i" x="7.15063" y="-23.1987" width="173.205" height="228.739" filterUnits="userSpaceOnUse" color-interpolation-filters="sRGB">
<feFlood flood-opacity="0" result="BackgroundImageFix"/>
<feBlend mode="normal" in="SourceGraphic" in2="BackgroundImageFix" result="shape"/>
<feColorMatrix in="SourceAlpha" type="matrix" values="0 0 0 0 0 0 0 0 0 0 0 0 0 0 0 0 0 0 127 0" result="hardAlpha"/>
<feOffset dy="4"/>
<feGaussianBlur stdDeviation="2"/>
<feComposite in2="hardAlpha" operator="arithmetic" k2="-1" k3="1"/>
<feColorMatrix type="matrix" values="0 0 0 0 0 0 0 0 0 0 0 0 0 0 0 0 0 0 0.25 0"/>
<feBlend mode="normal" in2="shape" result="effect1_innerShadow"/>
</filter>
<clipPath id="clip0">
<rect width="200" height="200" fill="white"/>
</clipPath>
</defs>
</svg>
