<svg width="200" height="200" viewBox="0 0 200 200" fill="none" xmlns="http://www.w3.org/2000/svg">
<g clip-path="url(#clip0)">
<g filter="url(#filter0_i)">
<path d="M50.6025 14.3013L93.9038 89.3013H7.30127L50.6025 14.3013Z" fill="#FDC826"/>
<path d="M50.6025 14.3013L137.205 14.3013L93.9038 89.3013L50.6025 14.3013Z" fill="#FDC826"/>
<path d="M93.7532 89.0403L180.356 89.0403L137.054 164.04L93.7532 89.0403Z" fill="#FDC826"/>
<path d="M93.7532 89.0403L137.054 14.0403L180.356 89.0403L93.7532 89.0403Z" fill="#FDC826"/>
<path d="M50.4519 164.04L93.7532 89.0403L137.054 164.04L50.4519 164.04Z" fill="#FDC826"/>
<path d="M50.4519 164.04L7.15064 89.0403L93.7532 89.0403L50.4519 164.04Z" fill="#FDC826"/>
</g>
<path d="M129.234 71.1846H108.586V108.609H142.417V91.7641L138.471 78.1277C137.282 74.0156 133.515 71.1846 129.234 71.1846Z" fill="#FF7058"/>
<path d="M137.478 91.5913L133.961 79.4361C133.355 77.3467 131.412 75.8843 129.235 75.8843H113.286V91.5913H137.478Z" fill="#84DBFF"/>
<path d="M137.482 91.585H113.278V75.8779L137.482 91.585Z" fill="#CDD6E0"/>
<path d="M137.478 91.5913L133.961 79.4361C133.355 77.3467 131.412 75.8843 129.235 75.8843H113.286L137.478 91.5913Z" fill="#F2F2F2"/>
<path d="M50.2495 52.397H102.337C105.786 52.397 108.586 55.1946 108.586 58.6464V108.607H44V58.6464C44 55.1948 46.7976 52.397 50.2495 52.397Z" fill="#FFD15C"/>
<path d="M86.3298 52.4077V68.9208L83.9132 66.5044L81.3802 69.0376L78.8492 66.5044L76.3182 69.0376L73.7828 66.5044L71.2186 69.0376L68.6895 66.5044L66.244 68.9501V52.4077H86.3298Z" fill="#F2F2F2"/>
<path d="M144 108.605V115.667H44.0083V108.605H54.4449C56.8822 104.23 61.5693 101.272 66.9439 101.272C72.2975 101.272 76.9846 104.23 79.4428 108.605H113.023C115.461 104.23 120.125 101.272 125.499 101.272C130.874 101.272 135.54 104.23 137.998 108.605H144Z" fill="#334A5E"/>
<path d="M135.48 115.623C135.48 121.135 131.011 125.603 125.499 125.603C119.987 125.603 115.523 121.135 115.523 115.623C115.523 110.11 119.989 105.642 125.499 105.642C131.014 105.642 135.48 110.11 135.48 115.623Z" fill="#40596B"/>
<path d="M129.511 115.623C129.511 117.837 127.716 119.631 125.503 119.631C123.289 119.631 121.491 117.837 121.491 115.623C121.491 113.408 123.287 111.615 125.503 111.615C127.716 111.613 129.511 113.409 129.511 115.623Z" fill="#ACB3BA"/>
<path d="M76.916 115.623C76.916 121.135 72.4455 125.603 66.9356 125.603C61.4236 125.603 56.9552 121.135 56.9552 115.623C56.9552 110.11 61.4236 105.642 66.9356 105.642C72.4455 105.642 76.916 110.11 76.916 115.623Z" fill="#40596B"/>
<path d="M70.9436 115.623C70.9436 117.837 69.15 119.631 66.9356 119.631C64.7211 119.631 62.9255 117.837 62.9255 115.623C62.9255 113.408 64.7213 111.615 66.9356 111.615C69.1498 111.615 70.9436 113.409 70.9436 115.623Z" fill="#ACB3BA"/>
</g>
<defs>
<filter id="filter0_i" x="7.15063" y="-23.1987" width="173.205" height="228.739" filterUnits="userSpaceOnUse" color-interpolation-filters="sRGB">
<feFlood flood-opacity="0" result="BackgroundImageFix"/>
<feBlend mode="normal" in="SourceGraphic" in2="BackgroundImageFix" result="shape"/>
<feColorMatrix in="SourceAlpha" type="matrix" values="0 0 0 0 0 0 0 0 0 0 0 0 0 0 0 0 0 0 127 0" result="hardAlpha"/>
<feOffset dy="4"/>
<feGaussianBlur stdDeviation="2"/>
<feComposite in2="hardAlpha" operator="arithmetic" k2="-1" k3="1"/>
<feColorMatrix type="matrix" values="0 0 0 0 0 0 0 0 0 0 0 0 0 0 0 0 0 0 0.25 0"/>
<feBlend mode="normal" in2="shape" result="effect1_innerShadow"/>
</filter>
<clipPath id="clip0">
<rect width="200" height="200" fill="white"/>
</clipPath>
</defs>
</svg>
