<svg width="100" height="100" viewBox="0 0 100 100" fill="none" xmlns="http://www.w3.org/2000/svg">
<g clip-path="url(#clip0)">
<path d="M99.9809 38.2296C99.9705 38.1147 99.9477 38.0012 99.9125 37.8913C99.8896 37.793 99.8578 37.6971 99.8176 37.6045C99.7709 37.5141 99.715 37.4286 99.651 37.3495C99.5867 37.2555 99.5123 37.169 99.4293 37.091C99.4025 37.0678 99.391 37.036 99.3627 37.0127L83.3335 24.5638V11.6616C83.3335 8.90016 81.0947 6.66137 78.3333 6.66137H60.2706L53.0384 1.04605C51.2518 -0.347381 48.7464 -0.347381 46.9598 1.04605L39.726 6.66137H21.6634C18.9019 6.66137 16.6632 8.89996 16.6632 11.6616V24.564L0.639095 37.0129C0.610773 37.0364 0.599054 37.068 0.57249 37.0912C0.489478 37.169 0.41506 37.2557 0.350799 37.3497C0.286733 37.4288 0.230871 37.5141 0.184189 37.6047C0.143757 37.6971 0.112115 37.7932 0.0892623 37.8915C0.0544949 37.9999 0.0316422 38.1116 0.0208994 38.2249C0.0208994 38.2599 0.000976562 38.2899 0.000976562 38.3249V94.9991C0.00332043 96.0593 0.346307 97.0906 0.979347 97.9408C0.989308 97.9559 0.991066 97.9742 1.00259 97.9875C1.01431 98.0008 1.03931 98.0158 1.05591 98.0342C1.99229 99.2663 3.44861 99.9927 4.99615 99.9993H95.0007C96.5543 99.9946 98.0167 99.2647 98.9542 98.026C98.9675 98.0094 98.9876 98.0043 98.9992 97.9877C99.0109 97.9711 99.0125 97.9561 99.0226 97.941C99.6556 97.0906 99.9986 96.0593 100.001 94.9993V38.3296C100.001 38.2946 99.9826 38.2645 99.9809 38.2296ZM48.9982 3.67607C49.5803 3.21354 50.4045 3.21354 50.9866 3.67607L54.8317 6.66118H45.1646L48.9982 3.67607ZM5.4161 96.6659L48.9984 62.8125C49.5808 62.3507 50.4045 62.3507 50.9868 62.8125L94.5806 96.6659H5.4161ZM96.6674 94.0674L53.0384 60.1823C51.2514 58.79 48.7468 58.79 46.9598 60.1823L3.32927 94.0674V40.868L30.6424 62.0775C31.3701 62.6418 32.4175 62.5093 32.9818 61.7816C33.546 61.0538 33.4136 60.0065 32.6858 59.4422L4.93775 37.8962L16.6633 28.784V41.663C16.6633 42.5835 17.4097 43.3296 18.33 43.3296C19.2506 43.3296 19.9967 42.5833 19.9967 41.663V11.6614C19.9967 10.7409 20.7429 9.99475 21.6634 9.99475H78.3329C79.2534 9.99475 79.9996 10.7409 79.9996 11.6614V41.663C79.9996 42.5835 80.7457 43.3296 81.6663 43.3296C82.5868 43.3296 83.3329 42.5833 83.3329 41.663V28.784L95.0585 37.8962L67.2622 59.4807C66.7841 59.843 66.5374 60.4344 66.6167 61.0292C66.696 61.6239 67.0888 62.1302 67.6452 62.3546C68.2017 62.5791 68.8359 62.4873 69.3057 62.114L96.667 40.868V94.0674H96.6674Z" fill="#FEC827"/>
<path d="M69.9985 39.9966V33.3296C69.9985 22.2834 61.0437 13.3286 49.9975 13.3286C38.9512 13.3286 29.9965 22.2834 29.9965 33.3296C29.9965 44.3759 38.9512 53.3306 49.9975 53.3306C50.918 53.3306 51.6642 52.5845 51.6642 51.664C51.6642 50.7434 50.918 49.9973 49.9975 49.9973C40.7923 49.9973 33.33 42.535 33.33 33.3298C33.33 24.1247 40.7923 16.6624 49.9975 16.6624C59.2026 16.6624 66.6649 24.1247 66.6649 33.3298V39.9968C66.6649 41.8379 65.1725 43.3303 63.3313 43.3303C61.4902 43.3303 59.9978 41.8379 59.9978 39.9968V33.3298C59.9978 32.4093 59.2517 31.6631 58.3311 31.6631C57.4105 31.6631 56.6644 32.4093 56.6644 33.3298C56.6644 37.0118 53.6795 39.9968 49.9975 39.9968C46.3154 39.9968 43.3305 37.0118 43.3305 33.3298C43.3305 29.6478 46.3154 26.6629 49.9975 26.6629C50.918 26.6629 51.6642 25.9168 51.6642 24.9962C51.6642 24.0756 50.918 23.3295 49.9975 23.3295C45.5217 23.3196 41.5842 26.2847 40.3575 30.5893C39.1309 34.8938 40.9136 39.4891 44.7224 41.84C48.5312 44.1909 53.4381 43.7249 56.7361 40.6988C57.099 44.2235 60.1626 46.8444 63.7011 46.6571C67.2397 46.4696 70.0096 43.5401 69.9985 39.9966Z" fill="#FEC827"/>
</g>
<defs>
<clipPath id="clip0">
<rect width="100" height="100" fill="white"/>
</clipPath>
</defs>
</svg>
