<svg width="100" height="100" viewBox="0 0 100 100" fill="none" xmlns="http://www.w3.org/2000/svg">
<g clip-path="url(#clip0)">
<path d="M35.3516 29.2969H64.6484L50 18.3105L35.3516 29.2969Z" fill="#FEC827"/>
<path d="M47.0703 46.875H52.9297V52.7344H47.0703V46.875Z" fill="#FEC827"/>
<path d="M35.3516 52.7344H41.2109V43.9453C41.2109 42.3273 42.5227 41.0156 44.1406 41.0156H55.8594C57.4773 41.0156 58.7891 42.3273 58.7891 43.9453V52.7344H64.6484V35.1562H35.3516V52.7344Z" fill="#FEC827"/>
<path d="M83.9508 20.9008C80.8614 14.7754 76.2299 9.60625 70.5571 5.95215C64.5123 2.0582 57.4037 0 50 0C42.5963 0 35.4877 2.0582 29.443 5.95215C23.7704 9.60625 19.1389 14.7754 16.0495 20.9006C12.96 27.026 11.5559 33.8229 11.9889 40.5568C12.4504 47.7322 15.0203 54.6723 19.4211 60.6264L47.6442 98.8119C48.1965 99.559 49.0707 100 50 100C50.9293 100 51.8036 99.559 52.3561 98.8117L80.5791 60.6262C84.9797 54.6721 87.5498 47.732 88.0114 40.5566C88.4444 33.8228 87.0403 27.026 83.9508 20.9008ZM76.2168 33.1529C75.818 34.3492 74.6987 35.1562 73.4375 35.1562H70.5079V55.6641C70.5079 57.282 69.1961 58.5938 67.5782 58.5938H32.4219C30.8039 58.5938 29.4922 57.282 29.4922 55.6641V35.1562H26.5625C25.3014 35.1562 24.1821 34.3492 23.7832 33.1529C23.3844 31.9566 23.7959 30.6395 24.8047 29.8828L48.2422 12.3047C49.2838 11.5234 50.7162 11.5234 51.7579 12.3047L75.1954 29.8828C76.2041 30.6395 76.6157 31.9566 76.2168 33.1529Z" fill="#FEC827"/>
</g>
<defs>
<clipPath id="clip0">
<rect width="100" height="100" fill="white"/>
</clipPath>
</defs>
</svg>
