<svg width="218" height="100" viewBox="0 0 218 100" fill="none" xmlns="http://www.w3.org/2000/svg">
<path d="M118.204 50.228C118.204 48.324 118.633 46.616 119.492 45.104C120.351 43.5733 121.517 42.3787 122.992 41.52C124.485 40.6613 126.137 40.232 127.948 40.232C130.076 40.232 131.933 40.7453 133.52 41.772C135.107 42.7987 136.264 44.2547 136.992 46.14H133.94C133.399 44.964 132.615 44.0587 131.588 43.424C130.58 42.7893 129.367 42.472 127.948 42.472C126.585 42.472 125.363 42.7893 124.28 43.424C123.197 44.0587 122.348 44.964 121.732 46.14C121.116 47.2973 120.808 48.66 120.808 50.228C120.808 51.7773 121.116 53.14 121.732 54.316C122.348 55.4733 123.197 56.3693 124.28 57.004C125.363 57.6387 126.585 57.956 127.948 57.956C129.367 57.956 130.58 57.648 131.588 57.032C132.615 56.3973 133.399 55.492 133.94 54.316H136.992C136.264 56.1827 135.107 57.6293 133.52 58.656C131.933 59.664 130.076 60.168 127.948 60.168C126.137 60.168 124.485 59.748 122.992 58.908C121.517 58.0493 120.351 56.864 119.492 55.352C118.633 53.84 118.204 52.132 118.204 50.228ZM154.785 51.74C154.785 52.2253 154.757 52.7387 154.701 53.28H142.437C142.53 54.792 143.044 55.9773 143.977 56.836C144.929 57.676 146.077 58.096 147.421 58.096C148.522 58.096 149.437 57.844 150.165 57.34C150.912 56.8173 151.434 56.1267 151.733 55.268H154.477C154.066 56.7427 153.245 57.9467 152.013 58.88C150.781 59.7947 149.25 60.252 147.421 60.252C145.965 60.252 144.658 59.9253 143.501 59.272C142.362 58.6187 141.466 57.6947 140.813 56.5C140.16 55.2867 139.833 53.8867 139.833 52.3C139.833 50.7133 140.15 49.3227 140.785 48.128C141.42 46.9333 142.306 46.0187 143.445 45.384C144.602 44.7307 145.928 44.404 147.421 44.404C148.877 44.404 150.165 44.7213 151.285 45.356C152.405 45.9907 153.264 46.868 153.861 47.988C154.477 49.0893 154.785 50.34 154.785 51.74ZM152.153 51.208C152.153 50.2373 151.938 49.4067 151.509 48.716C151.08 48.0067 150.492 47.4747 149.745 47.12C149.017 46.7467 148.205 46.56 147.309 46.56C146.021 46.56 144.92 46.9707 144.005 47.792C143.109 48.6133 142.596 49.752 142.465 51.208H152.153ZM160.052 57.9H167.584V60H157.14V57.9L164.588 46.728H157.196V44.656H167.528V46.728L160.052 57.9ZM169.938 52.272C169.938 50.704 170.256 49.332 170.89 48.156C171.525 46.9613 172.393 46.0373 173.494 45.384C174.614 44.7307 175.856 44.404 177.218 44.404C178.562 44.404 179.729 44.6933 180.718 45.272C181.708 45.8507 182.445 46.5787 182.93 47.456V44.656H185.506V60H182.93V57.144C182.426 58.04 181.67 58.7867 180.662 59.384C179.673 59.9627 178.516 60.252 177.19 60.252C175.828 60.252 174.596 59.916 173.494 59.244C172.393 58.572 171.525 57.6293 170.89 56.416C170.256 55.2027 169.938 53.8213 169.938 52.272ZM182.93 52.3C182.93 51.1427 182.697 50.1347 182.23 49.276C181.764 48.4173 181.129 47.764 180.326 47.316C179.542 46.8493 178.674 46.616 177.722 46.616C176.77 46.616 175.902 46.84 175.118 47.288C174.334 47.736 173.709 48.3893 173.242 49.248C172.776 50.1067 172.542 51.1147 172.542 52.272C172.542 53.448 172.776 54.4747 173.242 55.352C173.709 56.2107 174.334 56.8733 175.118 57.34C175.902 57.788 176.77 58.012 177.722 58.012C178.674 58.012 179.542 57.788 180.326 57.34C181.129 56.8733 181.764 56.2107 182.23 55.352C182.697 54.4747 182.93 53.4573 182.93 52.3ZM192.36 47.148C192.808 46.2707 193.443 45.5893 194.264 45.104C195.104 44.6187 196.122 44.376 197.316 44.376V47.008H196.644C193.788 47.008 192.36 48.5573 192.36 51.656V60H189.812V44.656H192.36V47.148ZM199.306 52.272C199.306 50.704 199.623 49.332 200.258 48.156C200.892 46.9613 201.76 46.0373 202.862 45.384C203.982 44.7307 205.223 44.404 206.586 44.404C207.93 44.404 209.096 44.6933 210.086 45.272C211.075 45.8507 211.812 46.5787 212.298 47.456V44.656H214.874V60H212.298V57.144C211.794 58.04 211.038 58.7867 210.03 59.384C209.04 59.9627 207.883 60.252 206.558 60.252C205.195 60.252 203.963 59.916 202.862 59.244C201.76 58.572 200.892 57.6293 200.258 56.416C199.623 55.2027 199.306 53.8213 199.306 52.272ZM212.298 52.3C212.298 51.1427 212.064 50.1347 211.598 49.276C211.131 48.4173 210.496 47.764 209.694 47.316C208.91 46.8493 208.042 46.616 207.09 46.616C206.138 46.616 205.27 46.84 204.486 47.288C203.702 47.736 203.076 48.3893 202.61 49.248C202.143 50.1067 201.91 51.1147 201.91 52.272C201.91 53.448 202.143 54.4747 202.61 55.352C203.076 56.2107 203.702 56.8733 204.486 57.34C205.27 57.788 206.138 58.012 207.09 58.012C208.042 58.012 208.91 57.788 209.694 57.34C210.496 56.8733 211.131 56.2107 211.598 55.352C212.064 54.4747 212.298 53.4573 212.298 52.3Z" fill="url(#paint0_linear)"/>
<path d="M85.3516 23.6328C82.7807 23.6328 80.2506 24.3092 78.0467 25.5818L63.8982 33.6625C63.201 31.5699 62.0445 29.6869 60.5477 28.1318C63.0094 26.5727 64.6484 23.8266 64.6484 20.7031C64.6484 16.7908 63.133 13.0861 60.3814 10.2711C59.8791 9.75723 59.3463 9.28672 58.7891 8.85781V8.78906C58.7891 7.17363 60.1033 5.85938 61.7188 5.85938C63.3367 5.85938 64.6484 4.54766 64.6484 2.92969C64.6484 1.31172 63.3367 0 61.7188 0C57.7564 0 54.3996 2.63613 53.3063 6.24609C52.2334 5.99336 51.1268 5.85938 50 5.85938C48.8734 5.85938 47.7666 5.99336 46.6938 6.24629C45.6006 2.63613 42.2436 0 38.2812 0C36.6633 0 35.3516 1.31172 35.3516 2.92969C35.3516 4.54766 36.6633 5.85938 38.2812 5.85938C39.8967 5.85938 41.2109 7.17363 41.2109 8.78906V8.85801C40.6535 9.28672 40.1207 9.75742 39.6186 10.2713C36.867 13.0861 35.3516 16.791 35.3516 20.7031C35.3516 23.8266 36.9906 26.5727 39.4525 28.1318C37.9557 29.6869 36.7992 31.5701 36.102 33.6625L21.9654 25.5887C19.7492 24.3092 17.2191 23.6328 14.6484 23.6328C6.57129 23.6328 0 30.2041 0 38.2812C0 46.3584 6.57129 52.9297 14.6484 52.9297C17.2191 52.9297 19.7492 52.2533 21.9533 50.9807L36.1018 42.9C36.9529 45.4549 38.4891 47.6979 40.4926 49.4119C33.7473 52.9562 29.4922 59.9125 29.4922 67.5781C29.4922 77.7908 34.3463 82.282 42.0357 86.5234C45.6133 88.4967 47.0703 89.473 47.0703 91.2109V97.0703C47.0703 98.6883 48.382 100 50 100C51.618 100 52.9297 98.6883 52.9297 97.0703V91.2109C52.9297 89.473 54.3867 88.4967 57.9643 86.5234C65.7652 82.2205 70.5078 77.6984 70.5078 67.5781C70.5078 59.8986 66.2311 52.9449 59.5072 49.4117C61.5109 47.6977 63.0469 45.4547 63.898 42.8998L78.0346 50.9736C80.2506 52.2533 82.7807 52.9297 85.3516 52.9297C93.4287 52.9297 100 46.3584 100 38.2812C100 30.2041 93.4287 23.6328 85.3516 23.6328ZM19.0354 45.8994C17.7088 46.6654 16.1918 47.0703 14.6484 47.0703C9.80215 47.0703 5.85938 43.1275 5.85938 38.2812C5.85938 33.435 9.80215 29.4922 14.6484 29.4922C16.1918 29.4922 17.7088 29.8971 19.0473 30.6699L32.374 38.2812L19.0354 45.8994ZM50 11.7188C54.7643 11.7188 58.7891 15.833 58.7891 20.7031C58.7891 22.3186 57.4748 23.6328 55.8594 23.6328H44.1406C42.5252 23.6328 41.2109 22.3186 41.2109 20.7031C41.2109 15.833 45.2357 11.7188 50 11.7188ZM50 29.4922C54.8463 29.4922 58.7891 33.435 58.7891 38.2812C58.7891 43.1275 54.8463 47.0703 50 47.0703C45.1537 47.0703 41.2109 43.1275 41.2109 38.2812C41.2109 33.435 45.1537 29.4922 50 29.4922ZM55.1344 81.3928C53.3705 82.3656 51.4969 83.3994 50 84.7709C48.5029 83.3994 46.6295 82.3656 44.8656 81.3928C42.2949 79.975 39.8004 78.5971 38.0104 76.3652H61.9894C60.1996 78.5971 57.7051 79.975 55.1344 81.3928ZM64.6484 67.5781C64.6484 68.6439 64.5768 69.6164 64.442 70.5078H35.558C35.4234 69.6164 35.3516 68.6439 35.3516 67.5781C35.3516 66.575 35.4533 65.5953 35.6463 64.6484H64.3535C64.5467 65.5953 64.6484 66.575 64.6484 67.5781ZM61.7107 58.7891H38.2893C40.9645 55.2336 45.218 52.9297 50 52.9297C54.782 52.9297 59.0355 55.2336 61.7107 58.7891ZM85.3516 47.0703C83.808 47.0703 82.291 46.6654 80.9527 45.8926L67.626 38.2812L80.9646 30.6629C82.291 29.8971 83.808 29.4922 85.3516 29.4922C90.1979 29.4922 94.1406 33.435 94.1406 38.2812C94.1406 43.1275 90.1979 47.0703 85.3516 47.0703Z" fill="url(#paint1_linear)"/>
<defs>
<linearGradient id="paint0_linear" x1="167.5" y1="29" x2="167.5" y2="71" gradientUnits="userSpaceOnUse">
<stop stop-color="#FD6701"/>
<stop offset="1" stop-color="#FFD201"/>
</linearGradient>
<linearGradient id="paint1_linear" x1="50" y1="100" x2="50" y2="0" gradientUnits="userSpaceOnUse">
<stop stop-color="#FD5900"/>
<stop offset="1" stop-color="#FFDE00"/>
</linearGradient>
</defs>
</svg>
