<svg width="150" height="150" viewBox="0 0 150 150" fill="none" xmlns="http://www.w3.org/2000/svg">
<rect width="150" height="150" fill="url(#paint0_linear)"/>
<path d="M45.6108 73.064C45.6108 65.6827 46.9334 59.9013 49.5788 55.72C52.2668 51.5387 56.7041 49.448 62.8908 49.448C69.0774 49.448 73.4934 51.5387 76.1388 55.72C78.8268 59.9013 80.1708 65.6827 80.1708 73.064C80.1708 80.488 78.8268 86.312 76.1388 90.536C73.4934 94.76 69.0774 96.872 62.8908 96.872C56.7041 96.872 52.2668 94.76 49.5788 90.536C46.9334 86.312 45.6108 80.488 45.6108 73.064ZM71.3388 73.064C71.3388 69.9067 71.1254 67.2613 70.6988 65.128C70.3148 62.952 69.5041 61.1813 68.2668 59.816C67.0721 58.4507 65.2801 57.768 62.8908 57.768C60.5014 57.768 58.6881 58.4507 57.4508 59.816C56.2561 61.1813 55.4454 62.952 55.0188 65.128C54.6348 67.2613 54.4428 69.9067 54.4428 73.064C54.4428 76.3067 54.6348 79.0373 55.0188 81.256C55.4028 83.432 56.2134 85.2027 57.4508 86.568C58.6881 87.8907 60.5014 88.552 62.8908 88.552C65.2801 88.552 67.0934 87.8907 68.3308 86.568C69.5681 85.2027 70.3788 83.432 70.7628 81.256C71.1468 79.0373 71.3388 76.3067 71.3388 73.064ZM85.8978 58.6V50.344H101.322V97H92.1058V58.6H85.8978Z" fill="black"/>
<defs>
<linearGradient id="paint0_linear" x1="150" y1="75" x2="1.07288e-06" y2="75" gradientUnits="userSpaceOnUse">
<stop stop-color="#FDF69E"/>
<stop offset="1" stop-color="white" stop-opacity="0"/>
</linearGradient>
</defs>
</svg>
