<svg width="150" height="150" viewBox="0 0 150 150" fill="none" xmlns="http://www.w3.org/2000/svg">
<rect width="150" height="150" fill="url(#paint0_linear)"/>
<path d="M38.8295 73.064C38.8295 65.6827 40.1522 59.9013 42.7975 55.72C45.4855 51.5387 49.9228 49.448 56.1095 49.448C62.2962 49.448 66.7122 51.5387 69.3575 55.72C72.0455 59.9013 73.3895 65.6827 73.3895 73.064C73.3895 80.488 72.0455 86.312 69.3575 90.536C66.7122 94.76 62.2962 96.872 56.1095 96.872C49.9228 96.872 45.4855 94.76 42.7975 90.536C40.1522 86.312 38.8295 80.488 38.8295 73.064ZM64.5575 73.064C64.5575 69.9067 64.3442 67.2613 63.9175 65.128C63.5335 62.952 62.7228 61.1813 61.4855 59.816C60.2908 58.4507 58.4988 57.768 56.1095 57.768C53.7202 57.768 51.9068 58.4507 50.6695 59.816C49.4748 61.1813 48.6642 62.952 48.2375 65.128C47.8535 67.2613 47.6615 69.9067 47.6615 73.064C47.6615 76.3067 47.8535 79.0373 48.2375 81.256C48.6215 83.432 49.4322 85.2027 50.6695 86.568C51.9068 87.8907 53.7202 88.552 56.1095 88.552C58.4988 88.552 60.3122 87.8907 61.5495 86.568C62.7868 85.2027 63.5975 83.432 63.9815 81.256C64.3655 79.0373 64.5575 76.3067 64.5575 73.064ZM83.0205 86.888C87.1165 83.4747 90.3805 80.6373 92.8125 78.376C95.2445 76.072 97.2712 73.6827 98.8925 71.208C100.514 68.7333 101.325 66.3013 101.325 63.912C101.325 61.736 100.813 60.0293 99.7885 58.792C98.7645 57.5547 97.1858 56.936 95.0525 56.936C92.9192 56.936 91.2765 57.6613 90.1245 59.112C88.9725 60.52 88.3752 62.4613 88.3325 64.936H79.6285C79.7992 59.816 81.3138 55.9333 84.1725 53.288C87.0738 50.6427 90.7432 49.32 95.1805 49.32C100.045 49.32 103.778 50.6213 106.381 53.224C108.983 55.784 110.285 59.176 110.285 63.4C110.285 66.728 109.389 69.9067 107.597 72.936C105.805 75.9653 103.757 78.6107 101.453 80.872C99.1485 83.0907 96.1405 85.7787 92.4285 88.936H111.309V96.36H79.6925V89.704L83.0205 86.888Z" fill="black"/>
<defs>
<linearGradient id="paint0_linear" x1="150" y1="75" x2="1.07288e-06" y2="75" gradientUnits="userSpaceOnUse">
<stop stop-color="#FDF69E"/>
<stop offset="1" stop-color="white" stop-opacity="0"/>
</linearGradient>
</defs>
</svg>
