<svg width="150" height="150" viewBox="0 0 150 150" fill="none" xmlns="http://www.w3.org/2000/svg">
<rect width="150" height="150" fill="url(#paint0_linear)"/>
<path d="M37.5483 73.064C37.5483 65.6827 38.8709 59.9013 41.5163 55.72C44.2043 51.5387 48.6416 49.448 54.8283 49.448C61.0149 49.448 65.4309 51.5387 68.0763 55.72C70.7643 59.9013 72.1083 65.6827 72.1083 73.064C72.1083 80.488 70.7643 86.312 68.0763 90.536C65.4309 94.76 61.0149 96.872 54.8283 96.872C48.6416 96.872 44.2043 94.76 41.5163 90.536C38.8709 86.312 37.5483 80.488 37.5483 73.064ZM63.2763 73.064C63.2763 69.9067 63.0629 67.2613 62.6363 65.128C62.2523 62.952 61.4416 61.1813 60.2043 59.816C59.0096 58.4507 57.2176 57.768 54.8283 57.768C52.4389 57.768 50.6256 58.4507 49.3883 59.816C48.1936 61.1813 47.3829 62.952 46.9563 65.128C46.5723 67.2613 46.3803 69.9067 46.3803 73.064C46.3803 76.3067 46.5723 79.0373 46.9563 81.256C47.3403 83.432 48.1509 85.2027 49.3883 86.568C50.6256 87.8907 52.4389 88.552 54.8283 88.552C57.2176 88.552 59.0309 87.8907 60.2683 86.568C61.5056 85.2027 62.3163 83.432 62.7003 81.256C63.0843 79.0373 63.2763 76.3067 63.2763 73.064ZM79.0513 62.632C79.2646 58.3653 80.7579 55.08 83.5312 52.776C86.3473 50.4293 90.0379 49.256 94.6033 49.256C97.7179 49.256 100.385 49.8107 102.603 50.92C104.822 51.9867 106.486 53.4587 107.595 55.336C108.747 57.1707 109.323 59.2613 109.323 61.608C109.323 64.296 108.619 66.5787 107.211 68.456C105.846 70.2907 104.203 71.528 102.283 72.168V72.424C104.758 73.192 106.678 74.5573 108.043 76.52C109.451 78.4827 110.155 81 110.155 84.072C110.155 86.632 109.558 88.9147 108.363 90.92C107.211 92.9253 105.483 94.504 103.179 95.656C100.918 96.7653 98.1873 97.32 94.9873 97.32C90.1659 97.32 86.2406 96.104 83.2113 93.672C80.1819 91.24 78.5819 87.656 78.4113 82.92H87.1153C87.2006 85.0107 87.9046 86.696 89.2273 87.976C90.5926 89.2133 92.4486 89.832 94.7953 89.832C96.9713 89.832 98.6353 89.2347 99.7873 88.04C100.982 86.8027 101.579 85.224 101.579 83.304C101.579 80.744 100.769 78.9093 99.1473 77.8C97.5259 76.6907 95.0086 76.136 91.5953 76.136H89.7393V68.776H91.5953C97.6539 68.776 100.683 66.7493 100.683 62.696C100.683 60.8613 100.129 59.432 99.0193 58.408C97.9526 57.384 96.3953 56.872 94.3472 56.872C92.3419 56.872 90.7846 57.4267 89.6753 58.536C88.6086 59.6027 87.9899 60.968 87.8193 62.632H79.0513Z" fill="black"/>
<defs>
<linearGradient id="paint0_linear" x1="150" y1="75" x2="1.07288e-06" y2="75" gradientUnits="userSpaceOnUse">
<stop stop-color="#FDF69E"/>
<stop offset="1" stop-color="white" stop-opacity="0"/>
</linearGradient>
</defs>
</svg>
