<svg width="1920" height="205" viewBox="0 0 1920 205" fill="none" xmlns="http://www.w3.org/2000/svg">
<path d="M0 64.9996L37.5002 0.0473633H112.502L150 64.9996L112.502 129.952H37.5002L0 64.9996Z" fill="#FBBE24"/>
<path d="M112 130L149.5 65.0474H224.502L262 130L224.502 194.952H149.5L112 130Z" fill="#FBBE24"/>
<path d="M224 64.9996L261.5 0.0473633H336.502L374 64.9996L336.502 129.952H261.5L224 64.9996Z" fill="#FBBE24"/>
<path d="M335 130L372.5 65.0474H447.502L485 130L447.502 194.952H372.5L335 130Z" fill="#FBBE24"/>
<path d="M441 64.9996L478.5 0.0473633H553.502L591 64.9996L553.502 129.952H478.5L441 64.9996Z" fill="#FBBE24"/>
<path d="M551 130L588.5 65.0474H663.502L701 130L663.502 194.952H588.5L551 130Z" fill="#FBBE24"/>
<path d="M658 64.9996L695.5 0.0473633H770.502L808 64.9996L770.502 129.952H695.5L658 64.9996Z" fill="#FBBE24"/>
<path d="M770 130L807.5 65.0474H882.502L920 130L882.502 194.952H807.5L770 130Z" fill="#FBBE24"/>
<path d="M880 64.9996L917.5 0.0473633H992.502L1030 64.9996L992.502 129.952H917.5L880 64.9996Z" fill="#FBBE24"/>
<path d="M989 130L1026.5 65.0474H1101.5L1139 130L1101.5 194.952H1026.5L989 130Z" fill="#FBBE24"/>
<path d="M1099 64.9996L1136.5 0.0473633H1211.5L1249 64.9996L1211.5 129.952H1136.5L1099 64.9996Z" fill="#FBBE24"/>
<path d="M1211 130L1248.5 65.0474H1323.5L1361 130L1323.5 194.952H1248.5L1211 130Z" fill="#FBBE24"/>
<path d="M1321 64.9996L1358.5 0.0473633H1433.5L1471 64.9996L1433.5 129.952H1358.5L1321 64.9996Z" fill="#FBBE24"/>
<path d="M1433 130L1470.5 65.0474H1545.5L1583 130L1545.5 194.952H1470.5L1433 130Z" fill="#FBBE24"/>
<path d="M1543 64.9996L1580.5 0.0473633H1655.5L1693 64.9996L1655.5 129.952H1580.5L1543 64.9996Z" fill="#FBBE24"/>
<path d="M1655 130L1692.5 65.0474H1767.5L1805 130L1767.5 194.952H1692.5L1655 130Z" fill="#FBBE24"/>
<path d="M1765 64.9996L1802.5 0.0473633H1877.5L1915 64.9996L1877.5 129.952H1802.5L1765 64.9996Z" fill="#FBBE24"/>
<rect width="1922" height="130" fill="#FBBE24"/>
</svg>
