<svg width="1920" height="440" viewBox="0 0 1920 440" fill="none" xmlns="http://www.w3.org/2000/svg">
<g clip-path="url(#clip0)">
<path d="M1269.76 130.536L1270.33 69.3861C1270.37 64.4361 1267.77 59.8447 1263.51 57.3326L1210.84 26.2665C1206.58 23.7546 1201.3 23.7058 1196.99 26.139L1143.75 56.2221C1139.45 58.6579 1136.77 63.2011 1136.72 68.1493L1136.15 129.302C1136.11 134.253 1138.7 138.844 1142.96 141.356L1195.64 172.422C1199.9 174.934 1205.18 174.983 1209.49 172.549L1262.73 142.463C1267.04 140.026 1269.72 135.483 1269.76 130.536Z" fill="white"/>
<path d="M1342.76 254.536L1343.33 193.386C1343.37 188.436 1340.77 183.845 1336.51 181.333L1283.84 150.266C1279.58 147.755 1274.3 147.706 1269.99 150.139L1216.75 180.222C1212.45 182.658 1209.77 187.201 1209.72 192.149L1209.15 253.302C1209.11 258.253 1211.7 262.844 1215.96 265.356L1268.64 296.422C1272.9 298.934 1278.18 298.983 1282.49 296.549L1335.73 266.463C1340.04 264.026 1342.72 259.483 1342.76 254.536Z" fill="white"/>
<path d="M1486.76 254.536L1487.33 193.386C1487.37 188.436 1484.77 183.845 1480.51 181.333L1427.84 150.266C1423.58 147.755 1418.3 147.706 1413.99 150.139L1360.75 180.222C1356.45 182.658 1353.77 187.201 1353.72 192.149L1353.15 253.302C1353.11 258.253 1355.7 262.844 1359.96 265.356L1412.64 296.422C1416.9 298.934 1422.18 298.983 1426.49 296.549L1479.73 266.463C1484.04 264.026 1486.72 259.483 1486.76 254.536Z" fill="white"/>
<path d="M1565.76 132.536L1566.33 71.3861C1566.37 66.4361 1563.77 61.8447 1559.51 59.3326L1506.84 28.2665C1502.58 25.7546 1497.3 25.7058 1492.99 28.139L1439.75 58.2221C1435.45 60.6579 1432.77 65.2011 1432.72 70.1493L1432.15 131.302C1432.11 136.253 1434.7 140.844 1438.96 143.356L1491.64 174.422C1495.9 176.934 1501.18 176.983 1505.49 174.549L1558.73 144.463C1563.04 142.026 1565.72 137.483 1565.76 132.536Z" fill="white"/>
<path d="M1631.76 254.536L1632.33 193.386C1632.37 188.436 1629.77 183.845 1625.51 181.333L1572.84 150.266C1568.58 147.755 1563.3 147.706 1558.99 150.139L1505.75 180.222C1501.45 182.658 1498.77 187.201 1498.72 192.149L1498.15 253.302C1498.11 258.253 1500.7 262.844 1504.96 265.356L1557.64 296.422C1561.9 298.934 1567.18 298.983 1571.49 296.549L1624.73 266.463C1629.04 264.026 1631.72 259.483 1631.76 254.536Z" fill="white"/>
<path d="M1775.76 256.536L1776.33 195.386C1776.37 190.436 1773.77 185.845 1769.51 183.333L1716.84 152.266C1712.58 149.755 1707.3 149.706 1702.99 152.139L1649.75 182.222C1645.45 184.658 1642.77 189.201 1642.72 194.149L1642.15 255.302C1642.11 260.253 1644.7 264.844 1648.96 267.356L1701.64 298.422C1705.9 300.934 1711.18 300.983 1715.49 298.549L1768.73 268.463C1773.04 266.026 1775.72 261.483 1775.76 256.536Z" fill="white"/>
<path d="M1843.76 379.536L1844.33 318.386C1844.37 313.436 1841.77 308.845 1837.51 306.333L1784.84 275.266C1780.58 272.755 1775.3 272.706 1770.99 275.139L1717.75 305.222C1713.45 307.658 1710.77 312.201 1710.72 317.149L1710.15 378.302C1710.11 383.253 1712.7 387.844 1716.96 390.356L1769.64 421.422C1773.9 423.934 1779.18 423.983 1783.49 421.549L1836.73 391.463C1841.04 389.026 1843.72 384.483 1843.76 379.536Z" fill="white"/>
<path d="M1917.76 254.536L1918.33 193.386C1918.37 188.436 1915.77 183.845 1911.51 181.333L1858.84 150.266C1854.58 147.755 1849.31 147.706 1844.99 150.139L1791.75 180.222C1787.45 182.658 1784.77 187.201 1784.72 192.149L1784.15 253.302C1784.11 258.253 1786.71 262.844 1790.96 265.356L1843.64 296.422C1847.9 298.934 1853.18 298.983 1857.49 296.549L1910.73 266.463C1915.04 264.026 1917.72 259.483 1917.76 254.536Z" fill="white"/>
<g clip-path="url(#clip1)">
<path d="M139.225 129.893L139.787 68.743C139.831 63.7931 137.236 59.2016 132.976 56.6895L80.2984 25.6234C76.039 23.1115 70.7661 23.0628 66.4542 25.4959L13.2142 55.579C8.90752 58.0149 6.22822 62.5581 6.18029 67.5062L5.61479 128.659C5.5721 133.61 8.16617 138.201 12.4255 140.713L65.1029 171.779C69.3628 174.291 74.6369 174.34 78.947 171.906L132.191 141.82C136.498 139.383 139.177 134.84 139.225 129.893Z" fill="white"/>
</g>
<path d="M281.764 128.536L282.325 67.3861C282.37 62.4361 279.774 57.8447 275.515 55.3326L222.837 24.2665C218.578 21.7546 213.305 21.7058 208.993 24.139L155.753 54.2221C151.446 56.6579 148.767 61.2011 148.719 66.1493L148.154 127.302C148.111 132.253 150.705 136.844 154.964 139.356L207.642 170.422C211.902 172.934 217.176 172.983 221.486 170.549L274.73 140.463C279.037 138.026 281.716 133.483 281.764 128.536Z" fill="white"/>
<path d="M349.764 252.536L350.325 191.386C350.37 186.436 347.774 181.845 343.515 179.333L290.837 148.266C286.578 145.755 281.305 145.706 276.993 148.139L223.753 178.222C219.446 180.658 216.767 185.201 216.719 190.149L216.154 251.302C216.111 256.253 218.705 260.844 222.964 263.356L275.642 294.422C279.902 296.934 285.176 296.983 289.486 294.549L342.73 264.463C347.037 262.026 349.716 257.483 349.764 252.536Z" fill="white"/>
<path d="M495.764 255.536L496.325 194.386C496.37 189.436 493.774 184.845 489.515 182.333L436.837 151.266C432.578 148.755 427.305 148.706 422.993 151.139L369.753 181.222C365.446 183.658 362.767 188.201 362.719 193.149L362.154 254.302C362.111 259.253 364.705 263.844 368.964 266.356L421.642 297.422C425.902 299.934 431.176 299.983 435.486 297.549L488.73 267.463C493.037 265.026 495.716 260.483 495.764 255.536Z" fill="white"/>
<path d="M563.764 132.536L564.325 71.3861C564.37 66.4361 561.774 61.8447 557.515 59.3326L504.837 28.2665C500.578 25.7546 495.305 25.7058 490.993 28.139L437.753 58.2221C433.446 60.6579 430.767 65.2011 430.719 70.1493L430.154 131.302C430.111 136.253 432.705 140.844 436.964 143.356L489.642 174.422C493.902 176.934 499.176 176.983 503.486 174.549L556.73 144.463C561.037 142.026 563.716 137.483 563.764 132.536Z" fill="white"/>
<path d="M705.764 130.536L706.326 69.3861C706.37 64.4361 703.775 59.8447 699.515 57.3326L646.837 26.2665C642.578 23.7546 637.305 23.7058 632.993 26.139L579.753 56.2221C575.446 58.6579 572.767 63.2011 572.719 68.1493L572.154 129.302C572.111 134.253 574.705 138.844 578.964 141.356L631.642 172.422C635.902 174.934 641.176 174.983 645.486 172.549L698.73 142.463C703.037 140.026 705.716 135.483 705.764 130.536Z" fill="white"/>
<path d="M773.764 255.536L774.326 194.386C774.37 189.436 771.775 184.845 767.515 182.333L714.837 151.266C710.578 148.755 705.305 148.706 700.993 151.139L647.753 181.222C643.446 183.658 640.767 188.201 640.719 193.149L640.154 254.302C640.111 259.253 642.705 263.844 646.964 266.356L699.642 297.422C703.902 299.934 709.176 299.983 713.486 297.549L766.73 267.463C771.037 265.026 773.716 260.483 773.764 255.536Z" fill="white"/>
<path d="M847.764 377.536L848.326 316.386C848.37 311.436 845.775 306.845 841.515 304.333L788.837 273.266C784.578 270.755 779.305 270.706 774.993 273.139L721.753 303.222C717.446 305.658 714.767 310.201 714.719 315.149L714.154 376.302C714.111 381.253 716.705 385.844 720.964 388.356L773.642 419.422C777.902 421.934 783.176 421.983 787.486 419.549L840.73 389.463C845.037 387.026 847.716 382.483 847.764 377.536Z" fill="white"/>
<path d="M916.764 254.536L917.326 193.386C917.37 188.436 914.775 183.845 910.515 181.333L857.837 150.266C853.578 147.755 848.305 147.706 843.993 150.139L790.753 180.222C786.446 182.658 783.767 187.201 783.719 192.149L783.154 253.302C783.111 258.253 785.705 262.844 789.964 265.356L842.642 296.422C846.902 298.934 852.176 298.983 856.486 296.549L909.73 266.463C914.037 264.026 916.716 259.483 916.764 254.536Z" fill="white"/>
<path d="M1058.76 254.536L1059.33 193.386C1059.37 188.436 1056.77 183.845 1052.51 181.333L999.837 150.266C995.578 147.755 990.305 147.706 985.993 150.139L932.753 180.222C928.446 182.658 925.767 187.201 925.719 192.149L925.154 253.302C925.111 258.253 927.705 262.844 931.964 265.356L984.642 296.422C988.902 298.934 994.176 298.983 998.486 296.549L1051.73 266.463C1056.04 264.026 1058.72 259.483 1058.76 254.536Z" fill="white"/>
<path d="M1127.76 130.536L1128.33 69.3861C1128.37 64.4361 1125.77 59.8447 1121.51 57.3326L1068.84 26.2665C1064.58 23.7546 1059.3 23.7058 1054.99 26.139L1001.75 56.2221C997.446 58.6579 994.767 63.2011 994.719 68.1493L994.153 129.302C994.111 134.253 996.705 138.844 1000.96 141.356L1053.64 172.422C1057.9 174.934 1063.18 174.983 1067.49 172.549L1120.73 142.463C1125.04 140.026 1127.72 135.483 1127.76 130.536Z" fill="white"/>
<g clip-path="url(#clip2)">
<path d="M184.071 87.2201C187.077 87.2201 190.191 86.9042 193.325 86.2824C194.884 85.9734 198.185 85.1167 201.481 84.0775C207.838 82.0725 208.846 81.0693 209.33 80.5871C210.241 79.6792 210.454 78.283 209.855 77.1447C209.478 76.4313 209.15 75.7699 208.832 75.1305C208.142 73.742 207.49 72.4313 206.486 70.823C204.695 67.9513 202.993 65.8326 200.612 63.5102C197.669 60.6385 194.838 58.072 189.985 55.7412C185.424 53.55 179.878 52.2935 174.765 52.2935C166.771 52.2935 160.488 55.2918 157.525 60.5187C154.68 65.5381 155.817 71.3792 160.904 77.8779C163.988 81.82 170.266 84.8962 174.794 86.0864C177.655 86.8386 180.777 87.2193 184.07 87.2201H184.071Z" fill="#E7F0EF"/>
<path d="M220.417 77.941C220.571 77.941 220.729 77.9288 220.885 77.9029C223.365 77.5016 228.226 74.0332 228.272 73.9997C230.452 72.3937 232.138 70.6984 233.736 68.5012C237.038 63.9617 237.833 57.8238 235.669 53.575C234.236 50.7621 231.694 49.1484 228.693 49.1484C226.67 49.1484 224.53 49.8786 222.329 51.3175C218.453 53.8512 216.011 58.3426 215.451 63.9647C214.982 68.6782 215.946 73.5251 217.964 76.6143C218.512 77.4505 219.438 77.941 220.417 77.941Z" fill="#C5E1E6"/>
<path d="M253.713 103.599C249.172 92.6374 238.74 85.4497 226.95 85.0591C223.969 92.6702 224.401 103.169 228.207 113.081C232.358 123.89 240.013 132.502 247.928 135.587C255.689 127.237 258.353 114.801 253.713 103.599V103.599Z" fill="#FF641A"/>
<path d="M222.737 115.182C218.766 104.843 218.054 94.1557 220.602 85.5215C218.506 85.9022 216.45 86.5072 214.45 87.3358C209.758 89.2782 204.379 93.4515 199.177 99.0629C199.028 106.544 200.49 114.473 203.476 122.252C206.97 131.346 212.258 139.303 218.486 145.018C219.783 145.072 221.051 145.104 222.268 145.104C228.749 145.104 233.857 144.349 237.449 142.861C239.462 142.028 241.334 140.997 243.057 139.805C234.629 135.441 227.062 126.443 222.737 115.182Z" fill="#FF9F00"/>
<path d="M193.576 105.766C193.094 106.405 192.617 107.052 192.144 107.712C185.124 117.517 180.931 127.19 180.931 133.589C180.931 136.401 183.845 137.981 186.382 139.044C188.813 140.062 192.189 141.081 196.146 141.991C200.472 142.986 205.134 143.775 209.711 144.31C204.927 138.686 200.891 131.862 198.007 124.352C195.638 118.181 194.149 111.902 193.576 105.766V105.766Z" fill="#FF9F00"/>
<path d="M222.737 115.182C218.766 104.843 218.054 94.1557 220.602 85.5215C218.506 85.9022 216.45 86.5072 214.45 87.3358C213.082 87.9019 211.656 88.6587 210.193 89.5849V135.257C212.672 138.952 215.468 142.25 218.486 145.019C219.783 145.073 221.05 145.104 222.268 145.104C228.749 145.104 233.856 144.349 237.449 142.862C239.462 142.028 241.334 140.998 243.057 139.805C234.629 135.441 227.062 126.443 222.737 115.182V115.182Z" fill="#FF641A"/>
</g>
<g clip-path="url(#clip3)">
<path fill-rule="evenodd" clip-rule="evenodd" d="M512.987 156.351C511.359 160.624 507.285 164.016 502.097 164.851C497.265 165.631 492.652 163.998 489.71 160.899C488.989 160.142 489.011 160.282 489.456 159.337C491.276 155.471 495.147 152.473 499.978 151.693C505.167 150.858 510.101 152.799 512.987 156.351V156.351Z" fill="#B3E59F"/>
<path fill-rule="evenodd" clip-rule="evenodd" d="M532.528 145.298C537.029 146.104 542.035 144.36 545.424 140.344C548.582 136.605 549.559 131.809 548.419 127.69C548.141 126.683 548.25 126.774 547.211 126.669C542.959 126.237 538.396 128.01 535.239 131.749C531.849 135.765 530.971 140.994 532.528 145.298V145.298Z" fill="#B3E59F"/>
<path fill-rule="evenodd" clip-rule="evenodd" d="M498.848 144.522C501.575 143.316 503.64 140.545 504.001 137.135C504.337 133.962 503.115 131.015 500.992 129.207C500.476 128.767 500.563 128.775 499.965 129.101C497.511 130.419 495.694 133.043 495.358 136.216C494.998 139.626 496.438 142.768 498.848 144.522Z" fill="#B3E59F"/>
<path fill-rule="evenodd" clip-rule="evenodd" d="M529.674 127.085C527.236 128.801 523.797 129.143 520.689 127.696C517.796 126.349 515.9 123.783 515.444 121.032C515.333 120.364 515.295 120.443 515.882 120.098C518.276 118.673 521.461 118.468 524.354 119.815C527.463 121.263 529.413 124.116 529.674 127.085V127.085Z" fill="#B3E59F"/>
<path d="M487.87 141.96C487.099 141.722 486.664 140.906 486.897 140.138C487.135 139.367 487.951 138.931 488.724 139.162C495.357 141.173 500.863 143.35 505.893 147.07C510.925 150.794 514.69 154.739 519.245 162.792C519.643 163.495 519.391 164.388 518.687 164.786C517.984 165.184 517.093 164.937 516.695 164.234C512.351 156.552 508.848 152.891 504.156 149.42C499.461 145.944 494.216 143.879 487.87 141.96V141.96Z" fill="#66B394"/>
<path fill-rule="evenodd" clip-rule="evenodd" d="M466.337 135.884C467.051 132.929 471.99 132.451 474.412 132.639C476.495 132.803 476.26 132.466 475.468 130.751C474.462 128.578 473.261 123.947 475.703 122.26C478.105 120.704 482.684 123.502 485.927 128.505C490.882 136.14 488.857 145.65 481.222 150.605C476.217 153.856 470.899 154.542 469.338 152.143C467.755 149.546 470.914 145.718 472.762 144.138C474.334 142.791 473.898 142.694 472.164 142.059C469.923 141.234 465.797 138.797 466.337 135.884V135.884Z" fill="#62D9FA"/>
<path fill-rule="evenodd" clip-rule="evenodd" d="M474.385 124.462C474.578 123.475 475.012 122.714 475.703 122.26C478.105 120.704 482.684 123.502 485.927 128.505C490.882 136.14 488.857 145.65 481.222 150.605C480.097 151.337 478.96 151.936 477.853 152.396C484.755 147.303 486.435 138.242 481.677 130.909C479.491 127.54 476.707 125.171 474.385 124.462V124.462Z" fill="#54D0F2"/>
<path d="M530.296 115.646C530.497 114.865 531.291 114.39 532.069 114.586C532.853 114.779 533.327 115.573 533.134 116.356C531.509 122.784 530.577 128.343 531.137 134.157C531.695 139.967 533.028 144.855 537.373 152.537C537.771 153.24 537.524 154.13 536.821 154.528C536.117 154.926 535.222 154.682 534.824 153.979C530.269 145.926 528.827 140.667 528.228 134.435C527.632 128.208 528.602 122.367 530.296 115.646V115.646Z" fill="#66B394"/>
<path fill-rule="evenodd" clip-rule="evenodd" d="M539.021 94.7709C536.174 93.8755 533.278 97.6952 532.192 99.8357C531.149 101.882 530.979 101.514 529.79 99.7826C528.448 97.8381 525.163 94.5824 522.519 95.7789C519.948 97.036 519.987 102.402 522.604 107.759C526.595 115.94 535.789 119.104 543.969 115.113C549.334 112.498 552.662 108.294 551.41 105.72C550.085 103.187 545.633 103.683 543.41 104.374C542.856 104.541 541.307 105.233 541.143 104.346C541.053 103.85 541.422 102.299 541.485 101.634C541.679 99.4694 541.465 95.6846 539.021 94.7709V94.7709Z" fill="#62D9FA"/>
<path d="M500.233 113.887C499.835 113.184 500.079 112.288 500.783 111.89C501.491 111.49 502.384 111.742 502.782 112.445L528.309 157.664C528.707 158.368 528.46 159.258 527.751 159.659C527.048 160.057 526.158 159.81 525.76 159.106L500.233 113.887Z" fill="#66B394"/>
<path fill-rule="evenodd" clip-rule="evenodd" d="M478.556 72.5963C481.154 71.2287 485.008 74.6017 486.672 76.2618C488.533 78.1227 488.94 77.0656 490.06 75.2232C491.206 73.3473 494.051 69.7407 496.633 70.3798C499.368 71.224 499.769 76.1495 499.761 78.463C499.755 81.0045 500.297 81.0412 502.637 80.4554C504.826 79.9047 509.548 79.2243 510.983 81.5927C512.299 84.0865 509.127 87.9031 507.502 89.516C505.711 91.2862 506.068 91.7388 508.114 92.9606C510.045 94.1139 513.862 96.9927 513.2 99.6695C512.358 102.398 507.433 102.798 505.125 102.8C502.631 102.799 502.573 103.417 503.135 105.681C503.683 107.864 504.342 112.593 501.985 114.016C499.448 115.355 495.706 112.148 494.058 110.516C491.987 108.463 491.611 109.598 490.346 111.611C489.199 113.43 486.429 116.854 483.916 116.234C481.278 115.417 480.783 110.673 480.786 108.419C480.789 105.625 480.219 105.584 477.654 106.221C475.509 106.748 470.952 107.315 469.565 105.021C468.236 102.503 471.419 98.7182 473.052 97.095C475.161 94.9988 473.995 94.6592 471.966 93.3772C470.15 92.2356 466.728 89.4578 467.348 86.9444C468.177 84.2493 473.127 83.7901 475.414 83.8071C477.993 83.8238 477.978 83.2469 477.396 80.924C476.85 78.7453 476.214 74.0103 478.556 72.5963V72.5963Z" fill="#FD91BA"/>
<path fill-rule="evenodd" clip-rule="evenodd" d="M494.666 101.076C498.95 98.6532 500.465 93.1908 498.045 88.9115C495.624 84.6323 490.159 83.1121 485.875 85.5353C481.596 87.9557 480.083 93.4229 482.504 97.7021C484.924 101.981 490.387 103.497 494.666 101.076Z" fill="#FCBF66"/>
<path fill-rule="evenodd" clip-rule="evenodd" d="M503.251 91.9203C501.46 93.6905 501.818 94.1431 503.864 95.3649C505.795 96.5182 509.611 99.3971 508.95 102.074C508.907 102.212 508.855 102.344 508.792 102.469C510.763 102.085 512.698 101.29 513.2 99.6698C513.862 96.9932 510.045 94.1142 508.114 92.9609C506.068 91.7391 505.71 91.2864 507.502 89.5163C509.127 87.9034 512.299 84.0868 510.983 81.593C509.548 79.2245 504.825 79.9048 502.637 80.4557C500.297 81.0416 499.755 81.0048 499.761 78.4633C499.769 76.1497 499.368 71.2242 496.633 70.38C495.013 69.9793 493.288 71.2478 491.947 72.7123C492.094 72.7245 492.239 72.7445 492.382 72.7842C495.118 73.6284 495.519 78.554 495.511 80.8676C495.504 83.4091 496.047 83.4458 498.387 82.8599C500.575 82.3092 505.298 81.6289 506.733 83.9972C508.049 86.4908 504.877 90.3074 503.251 91.9203V91.9203Z" fill="#F585B0"/>
<path fill-rule="evenodd" clip-rule="evenodd" d="M494.666 101.076C498.96 98.6477 500.471 93.2003 498.045 88.9116C495.616 84.6178 490.169 83.1066 485.875 85.5353C485.143 85.9497 484.487 86.4542 483.916 87.0312C487.702 86.1111 491.783 87.7592 493.795 91.3156C495.803 94.8673 495.113 99.2139 492.375 101.985C493.163 101.793 493.928 101.493 494.666 101.076V101.076Z" fill="#F7B551"/>
<path fill-rule="evenodd" clip-rule="evenodd" d="M551.41 105.72C550.085 103.187 545.633 103.682 543.41 104.374C542.856 104.541 541.307 105.233 541.142 104.346C541.053 103.85 541.422 102.299 541.484 101.634C541.679 99.4692 541.465 95.6844 539.021 94.7707C537.247 94.2095 535.45 95.4865 534.087 97.0462C534.316 97.0569 534.544 97.0998 534.771 97.1749C537.215 98.0886 537.428 101.873 537.234 104.038C537.171 104.703 536.802 106.254 536.892 106.75C537.056 107.637 538.605 106.945 539.159 106.778C541.383 106.087 545.835 105.591 547.159 108.124C548.129 110.12 546.343 113.102 542.993 115.557C543.315 115.419 543.645 115.271 543.969 115.113C549.334 112.497 552.662 108.294 551.41 105.72V105.72Z" fill="#54D0F2"/>
<path fill-rule="evenodd" clip-rule="evenodd" d="M548.418 127.69C548.141 126.683 548.25 126.774 547.211 126.669C543.784 126.323 540.158 127.401 537.223 129.793C539.098 129.127 541.059 128.882 542.961 129.073C544 129.178 543.891 129.087 544.168 130.094C545.309 134.213 544.332 139.009 541.174 142.748C540.561 143.476 539.893 144.127 539.189 144.704C541.502 143.879 543.68 142.411 545.424 140.344C548.582 136.605 549.559 131.809 548.418 127.69Z" fill="#95D6A4"/>
<path fill-rule="evenodd" clip-rule="evenodd" d="M528.612 123.71C527.698 122.084 526.236 120.691 524.354 119.815C521.461 118.468 518.276 118.673 515.882 120.097C515.295 120.442 515.333 120.364 515.444 121.032C515.461 121.131 515.482 121.234 515.499 121.332C517.012 121.24 518.595 121.521 520.104 122.219C522.892 123.517 524.752 125.951 525.294 128.583C526.29 128.522 527.258 128.299 528.148 127.929C528.24 126.528 528.397 125.129 528.612 123.71V123.71Z" fill="#95D6A4"/>
<path fill-rule="evenodd" clip-rule="evenodd" d="M504.001 137.135C504.337 133.962 503.115 131.014 500.992 129.206C500.476 128.767 500.563 128.775 499.965 129.1C498.79 129.733 497.759 130.666 496.97 131.812C498.948 133.632 500.075 136.48 499.75 139.539C499.624 140.743 499.284 141.863 498.778 142.869C499.309 143.122 499.836 143.377 500.357 143.648C502.312 142.212 503.71 139.882 504.001 137.135V137.135Z" fill="#95D6A4"/>
<path fill-rule="evenodd" clip-rule="evenodd" d="M508.084 152.674C505.67 151.623 502.865 151.23 499.978 151.693C497.303 152.125 494.928 153.233 493.029 154.791C493.886 154.484 494.788 154.247 495.728 154.097C500.916 153.262 505.85 155.203 508.737 158.755C507.948 160.823 506.58 162.69 504.796 164.158C508.212 162.932 510.925 160.532 512.433 157.586C510.996 155.664 509.579 154.08 508.084 152.674V152.674Z" fill="#95D6A4"/>
</g>
<g clip-path="url(#clip4)">
<path d="M796.516 395.911C796.118 394.996 795.184 394.433 794.189 394.508L792.309 394.651C780.816 395.526 770.447 401.968 764.573 411.885L764.414 412.154L777.857 420.118L778.016 419.849C782.127 412.909 787.219 406.619 793.151 401.153L795.955 398.569C796.689 397.893 796.914 396.826 796.516 395.911V395.911Z" fill="#00A763"/>
<path d="M732.752 359.371L731.974 357.654C731.562 356.745 730.62 356.196 729.626 356.287C728.632 356.377 727.805 357.087 727.564 358.056L726.646 361.757C724.702 369.585 721.632 377.073 717.521 384.013L717.362 384.282L730.805 392.246L730.965 391.977C736.839 382.06 737.508 369.871 732.752 359.371V359.371Z" fill="#A2E786"/>
<path d="M751.953 370.705C752.665 360.716 751.017 350.545 747.187 341.293C746.766 340.276 745.695 339.689 744.611 339.882C743.528 340.074 742.724 340.994 742.679 342.093C742.079 356.787 737.799 371.242 730.304 383.894L726.772 389.857L742.904 399.413L743.064 399.144C748.168 390.528 751.242 380.694 751.953 370.705V370.705Z" fill="#00CB75"/>
<path d="M803.704 374.887C803.352 373.844 802.323 373.187 801.229 373.306C791.274 374.392 781.562 377.834 773.144 383.257C764.725 388.681 757.578 396.102 752.474 404.718L752.315 404.987L768.447 414.543L771.979 408.581C779.474 395.928 790.094 385.23 802.692 377.643C803.635 377.076 804.056 375.929 803.704 374.887V374.887Z" fill="#007845"/>
<path d="M808.307 348.412C807.847 347.358 806.691 346.794 805.577 347.079L805.147 347.189C791.139 350.774 778.193 357.026 766.668 365.769C766.426 365.952 766.222 366.181 766.068 366.442L745.752 400.737L756.507 407.108L760.998 399.527C772.463 380.173 788.518 363.503 807.428 351.319C808.394 350.697 808.766 349.465 808.307 348.412V348.412Z" fill="#00A763"/>
<path d="M770.494 367.371C772.512 353.264 771.743 339.112 768.209 325.307L768.099 324.877C767.814 323.763 766.764 323.02 765.619 323.123C764.474 323.226 763.573 324.144 763.491 325.291C761.892 347.729 754.986 369.819 743.521 389.173L738.871 397.023L756.348 407.376L756.507 407.107C763.77 394.847 768.476 381.478 770.494 367.371Z" fill="#A2E786"/>
<path d="M771.068 362.599L747.609 402.2L756.348 407.376L756.507 407.107C763.77 394.847 768.476 381.478 770.494 367.371C770.721 365.781 770.911 364.19 771.068 362.599Z" fill="#00CB75"/>
<path d="M778.813 423.409L714.017 385.024C712.903 384.365 712.535 382.927 713.195 381.813C713.854 380.7 715.292 380.332 716.406 380.991L781.202 419.376C782.316 420.035 782.684 421.473 782.024 422.587C781.365 423.7 779.927 424.068 778.813 423.409Z" fill="#AF8663"/>
<path d="M781.202 419.376L748.804 400.184L746.415 404.217L778.813 423.409C779.927 424.068 781.365 423.7 782.024 422.587C782.684 421.473 782.316 420.035 781.202 419.376Z" fill="#896645"/>
</g>
<g clip-path="url(#clip5)">
<path d="M1223.75 142.365C1210.99 153.499 1209.67 172.871 1220.8 185.633C1231.93 198.396 1251.31 199.716 1264.07 188.582C1276.83 177.448 1278.15 158.076 1267.02 145.314C1255.88 132.551 1236.51 131.231 1223.75 142.365Z" fill="#EAEAEA"/>
<path d="M1247.65 179.903C1244.6 182.566 1244.28 187.198 1246.94 190.25C1249.61 193.302 1254.24 193.618 1257.29 190.955C1260.34 188.293 1260.66 183.66 1258 180.608C1255.33 177.556 1250.7 177.241 1247.65 179.903Z" fill="#BF7E68"/>
<path d="M1246.77 178.899C1250.37 175.757 1255.86 176.131 1259 179.732C1262.14 183.333 1261.77 188.819 1258.17 191.96C1254.57 195.102 1249.08 194.728 1245.94 191.127C1242.8 187.526 1243.17 182.04 1246.77 178.899ZM1256.41 189.951C1258.91 187.776 1259.17 183.978 1256.99 181.485C1254.82 178.992 1251.02 178.733 1248.53 180.908C1246.03 183.083 1245.77 186.88 1247.95 189.374C1250.12 191.867 1253.92 192.126 1256.41 189.951Z" fill="#4C241D"/>
<path d="M1245.99 167.481C1245.54 174.093 1247.58 179.616 1250.56 179.819C1253.53 180.022 1256.31 174.827 1256.76 168.216C1257.21 161.604 1255.16 156.081 1252.19 155.878C1249.22 155.675 1246.44 160.87 1245.99 167.481Z" fill="white"/>
<path d="M1249.03 155.773C1250.04 154.898 1251.14 154.476 1252.28 154.553C1256.1 154.814 1258.6 160.729 1258.08 168.313C1257.57 175.897 1254.29 181.418 1250.46 181.157C1246.63 180.896 1244.14 174.981 1244.65 167.397C1244.88 164.015 1245.7 160.856 1246.96 158.501C1247.58 157.349 1248.28 156.433 1249.03 155.773ZM1251.96 177.928C1252.46 177.492 1252.96 176.818 1253.42 175.952C1254.51 173.923 1255.22 171.146 1255.42 168.132C1255.63 165.119 1255.3 162.27 1254.5 160.113C1253.85 158.356 1252.95 157.272 1252.09 157.213C1251.24 157.154 1250.2 158.106 1249.31 159.758C1248.23 161.787 1247.52 164.564 1247.31 167.579C1246.86 174.172 1248.95 178.382 1250.64 178.497C1251.05 178.525 1251.5 178.324 1251.96 177.928V177.928Z" fill="#4C241D"/>
<path d="M1223.33 181.054C1223.13 184.028 1228.32 186.804 1234.93 187.255C1241.54 187.705 1247.07 185.659 1247.27 182.685C1247.47 179.711 1242.28 176.935 1235.67 176.484C1229.06 176.033 1223.53 178.079 1223.33 181.054Z" fill="white"/>
<path d="M1223.64 177.925C1224.4 177.266 1225.4 176.697 1226.62 176.244C1229.13 175.317 1232.37 174.933 1235.75 175.164C1243.33 175.68 1248.86 178.957 1248.6 182.786C1248.33 186.614 1242.42 189.113 1234.84 188.596C1227.25 188.078 1221.73 184.801 1221.99 180.973C1222.07 179.835 1222.64 178.801 1223.64 177.925V177.925ZM1245.19 183.827C1245.65 183.432 1245.91 183.013 1245.94 182.605C1246.05 180.911 1242.16 178.273 1235.57 177.824C1232.56 177.619 1229.71 177.945 1227.55 178.744C1225.79 179.395 1224.71 180.297 1224.65 181.154C1224.59 182.012 1225.54 183.051 1227.2 183.935C1229.23 185.019 1232 185.729 1235.02 185.935C1238.03 186.14 1240.88 185.813 1243.04 185.014C1243.96 184.674 1244.69 184.264 1245.19 183.827V183.827Z" fill="#4C241D"/>
<path d="M1253.4 192.58C1253.59 192.413 1253.83 192.299 1254.11 192.263C1254.84 192.168 1255.5 192.683 1255.6 193.413L1256.22 198.181C1256.32 198.91 1255.8 199.579 1255.07 199.675C1254.34 199.77 1253.67 199.255 1253.57 198.524L1252.95 193.757C1252.89 193.298 1253.08 192.863 1253.4 192.58Z" fill="#4C241D"/>
<path d="M1234.5 164.832C1230.62 168.221 1231.2 175.241 1235.8 180.513C1240.39 185.784 1247.27 187.311 1251.16 183.922C1255.04 180.534 1254.46 173.513 1249.86 168.242C1245.26 162.97 1238.39 161.444 1234.5 164.832Z" fill="#BF7E68"/>
<path d="M1233.63 163.828C1238.06 159.961 1245.79 161.548 1250.87 167.365C1255.94 173.182 1256.46 181.061 1252.03 184.927C1247.6 188.794 1239.87 187.207 1234.79 181.39C1229.72 175.573 1229.19 167.694 1233.63 163.828ZM1250.28 182.918C1253.6 180.018 1252.97 173.828 1248.86 169.118C1244.75 164.409 1238.7 162.937 1235.38 165.837C1232.05 168.737 1232.69 174.927 1236.8 179.637C1240.91 184.346 1246.95 185.818 1250.28 182.918Z" fill="#4C241D"/>
<path d="M1259.43 187.322C1259.75 187.039 1260.21 186.917 1260.65 187.039L1265.29 188.3C1266 188.493 1266.42 189.226 1266.23 189.937C1266.04 190.648 1265.3 191.067 1264.59 190.874L1259.96 189.612C1259.24 189.42 1258.83 188.687 1259.02 187.976C1259.09 187.712 1259.24 187.489 1259.43 187.322V187.322Z" fill="#4C241D"/>
<path d="M1249.4 167.75C1247.74 165.99 1245.83 164.689 1243.88 163.907C1242.14 165.691 1240.28 167.459 1238.3 169.186C1236.32 170.914 1234.32 172.512 1232.31 173.996C1232.82 176.034 1233.85 178.105 1235.37 179.988C1237.82 178.245 1240.27 176.318 1242.68 174.21C1245.1 172.102 1247.34 169.935 1249.4 167.75V167.75Z" fill="#FFCE56"/>
<path d="M1231.44 172.992C1231.46 172.969 1231.49 172.947 1231.52 172.925C1235.63 169.882 1239.35 166.633 1242.92 162.975C1243.31 162.574 1243.87 162.469 1244.37 162.669C1246.55 163.541 1248.62 164.982 1250.37 166.835C1250.85 167.347 1250.85 168.15 1250.37 168.664C1246.09 173.206 1241.23 177.45 1236.14 181.074C1235.57 181.484 1234.77 181.375 1234.33 180.825C1232.73 178.84 1231.59 176.591 1231.02 174.321C1230.9 173.832 1231.06 173.32 1231.44 172.992V172.992ZM1239.18 170.191C1237.49 171.667 1235.7 173.118 1233.85 174.513C1234.25 175.754 1234.87 176.982 1235.66 178.136C1239.86 175.044 1243.89 171.53 1247.53 167.78C1246.49 166.842 1245.36 166.07 1244.18 165.498C1242.55 167.14 1240.87 168.716 1239.18 170.191V170.191Z" fill="#4C241D"/>
<path d="M1253 173.58C1251.15 175.491 1249.18 177.386 1247.07 179.234C1244.95 181.078 1242.81 182.784 1240.67 184.349C1244.44 186.256 1248.5 186.24 1251.16 183.923C1253.82 181.602 1254.38 177.578 1253 173.58Z" fill="#FFCE56"/>
<path d="M1252.12 172.575C1252.44 172.299 1252.87 172.186 1253.28 172.278C1253.74 172.378 1254.11 172.706 1254.26 173.144C1255.87 177.807 1255.02 182.322 1252.03 184.927C1249.05 187.528 1244.47 187.763 1240.07 185.539C1239.66 185.33 1239.38 184.92 1239.34 184.458C1239.3 183.997 1239.51 183.545 1239.88 183.274C1244.14 180.162 1248.08 176.749 1252.04 172.653C1252.06 172.626 1252.09 172.6 1252.12 172.575ZM1250.28 182.918C1251.99 181.426 1252.69 178.966 1252.28 176.203C1249.39 179.061 1246.47 181.603 1243.37 183.992C1246.04 184.771 1248.57 184.406 1250.28 182.918Z" fill="#4C241D"/>
<path d="M1259.36 146.682C1259.58 146.497 1259.85 146.379 1260.14 146.358L1266.79 145.866C1267.52 145.81 1268.16 146.362 1268.22 147.097C1268.27 147.83 1267.72 148.47 1266.99 148.524L1261.34 148.943L1260.15 154.485C1260 155.207 1259.29 155.665 1258.57 155.511C1257.85 155.358 1257.39 154.65 1257.55 153.929L1258.94 147.409C1259 147.119 1259.15 146.867 1259.36 146.682V146.682Z" fill="#4C241D"/>
<path d="M1250.32 143.049C1250.29 144.487 1250.75 145.94 1251.77 147.11C1253.95 149.607 1257.74 149.865 1260.24 147.687C1262.74 145.508 1263 141.718 1260.82 139.221C1259.8 138.052 1258.42 137.394 1256.99 137.227C1256.51 135.109 1255.3 132.754 1253.44 130.618C1249.57 126.179 1241.83 126.587 1241.83 126.587C1241.83 126.587 1240.38 134.193 1244.25 138.632C1246.12 140.769 1248.28 142.287 1250.32 143.049V143.049Z" fill="#FFCE56"/>
<path d="M1240.96 125.583C1241.18 125.392 1241.46 125.272 1241.76 125.256C1242.11 125.237 1250.19 124.869 1254.44 129.742C1256.15 131.695 1257.41 133.912 1258.06 136.067C1259.53 136.425 1260.84 137.215 1261.82 138.345C1264.48 141.392 1264.16 146.034 1261.12 148.691C1258.07 151.349 1253.43 151.033 1250.77 147.986C1249.78 146.857 1249.18 145.451 1249.02 143.953C1246.98 143.016 1244.95 141.462 1243.25 139.508C1239 134.636 1240.46 126.673 1240.52 126.338C1240.58 126.035 1240.74 125.773 1240.96 125.583V125.583ZM1259.36 146.682C1261.3 144.99 1261.5 142.036 1259.81 140.098C1259.06 139.237 1258 138.688 1256.84 138.55C1256.27 138.485 1255.82 138.072 1255.69 137.521C1255.24 135.524 1254.08 133.384 1252.43 131.495C1249.85 128.534 1245.13 128.007 1243 127.926C1242.79 130.05 1242.67 134.795 1245.26 137.755C1246.91 139.645 1248.87 141.081 1250.79 141.8C1251.31 141.999 1251.66 142.509 1251.65 143.075C1251.63 144.251 1252.03 145.373 1252.78 146.233C1254.47 148.172 1257.42 148.373 1259.36 146.682Z" fill="#4C241D"/>
<path d="M1237.12 140.419C1236.98 142.498 1240.61 144.439 1245.23 144.754C1249.85 145.069 1253.71 143.639 1253.86 141.56C1254 139.48 1250.37 137.54 1245.75 137.225C1241.12 136.91 1237.26 138.34 1237.12 140.419Z" fill="white"/>
<path d="M1237.07 137.955C1238.78 136.464 1242.01 135.639 1245.83 135.899C1251.36 136.276 1255.38 138.751 1255.18 141.656C1254.98 144.561 1250.66 146.468 1245.13 146.09C1242.71 145.925 1240.45 145.335 1238.75 144.429C1236.73 143.348 1235.67 141.893 1235.78 140.333C1235.84 139.431 1236.3 138.625 1237.07 137.955ZM1252.15 142.052C1252.38 141.85 1252.51 141.65 1252.52 141.474C1252.58 140.616 1250.01 138.857 1245.65 138.559C1241.28 138.263 1238.5 139.658 1238.44 140.515C1238.42 140.863 1238.89 141.481 1240.01 142.078C1241.36 142.799 1243.29 143.292 1245.31 143.43C1248.78 143.665 1251.25 142.834 1252.15 142.052V142.052Z" fill="#4C241D"/>
<path d="M1251.77 131.969C1251.46 136.591 1252.89 140.452 1254.97 140.594C1257.04 140.735 1258.99 137.104 1259.3 132.482C1259.62 127.861 1258.19 123.999 1256.11 123.858C1254.03 123.716 1252.09 127.348 1251.77 131.969Z" fill="white"/>
<path d="M1253.66 123.484C1254.43 122.813 1255.29 122.468 1256.19 122.53C1257.75 122.636 1259.05 123.879 1259.84 126.03C1260.51 127.831 1260.79 130.157 1260.62 132.576C1260.25 138.107 1257.77 142.127 1254.87 141.928C1251.96 141.73 1250.05 137.412 1250.43 131.882C1250.69 128.07 1251.95 124.974 1253.66 123.484V123.484ZM1255.67 138.979C1256.57 138.197 1257.73 135.865 1257.96 132.395C1258.1 130.374 1257.87 128.39 1257.34 126.955C1256.9 125.769 1256.36 125.213 1256.01 125.19C1255.15 125.134 1253.39 127.697 1253.09 132.063C1252.79 136.43 1254.19 139.209 1255.05 139.268C1255.22 139.28 1255.44 139.181 1255.67 138.979Z" fill="#4C241D"/>
<path d="M1218.06 170.327C1218.27 170.142 1218.55 170.025 1218.84 170.003L1225.49 169.511C1226.22 169.456 1226.86 170.007 1226.92 170.742C1226.97 171.476 1226.42 172.116 1225.69 172.17L1220.03 172.588L1218.85 178.131C1218.7 178.853 1217.99 179.31 1217.27 179.157C1216.55 179.004 1216.09 178.295 1216.25 177.575L1217.63 171.054C1217.7 170.764 1217.85 170.512 1218.06 170.327V170.327Z" fill="#4C241D"/>
<path d="M1209.02 166.694C1208.99 168.132 1209.45 169.585 1210.47 170.755C1212.65 173.252 1216.44 173.51 1218.94 171.332C1221.44 169.153 1221.69 165.363 1219.52 162.866C1218.5 161.697 1217.12 161.039 1215.69 160.872C1215.21 158.754 1214 156.399 1212.14 154.263C1208.26 149.824 1200.53 150.232 1200.53 150.232C1200.53 150.232 1199.08 157.838 1202.95 162.277C1204.81 164.414 1206.98 165.932 1209.02 166.694Z" fill="#FFCE56"/>
<path d="M1199.66 149.228C1199.87 149.037 1200.15 148.917 1200.46 148.901C1200.8 148.882 1208.89 148.514 1213.14 153.387C1214.85 155.34 1216.11 157.557 1216.76 159.712C1218.22 160.07 1219.54 160.86 1220.52 161.99C1223.18 165.037 1222.86 169.679 1219.82 172.336C1216.77 174.994 1212.13 174.678 1209.47 171.631C1208.48 170.502 1207.88 169.096 1207.72 167.598C1205.67 166.661 1203.65 165.107 1201.95 163.154C1197.7 158.281 1199.16 150.318 1199.22 149.983C1199.28 149.68 1199.44 149.418 1199.66 149.228ZM1218.06 170.327C1220 168.636 1220.2 165.681 1218.51 163.743C1217.76 162.882 1216.7 162.333 1215.54 162.195C1214.97 162.13 1214.51 161.717 1214.39 161.166C1213.94 159.169 1212.78 157.029 1211.13 155.14C1208.55 152.179 1203.83 151.652 1201.7 151.571C1201.49 153.695 1201.37 158.44 1203.96 161.4C1205.6 163.29 1207.57 164.726 1209.48 165.445C1210.01 165.644 1210.36 166.154 1210.35 166.72C1210.33 167.896 1210.73 169.018 1211.48 169.878C1213.17 171.817 1216.12 172.018 1218.06 170.327V170.327Z" fill="#4C241D"/>
<path d="M1195.82 164.057C1195.68 166.136 1199.31 168.077 1203.93 168.392C1208.55 168.707 1212.42 167.277 1212.56 165.198C1212.7 163.119 1209.07 161.178 1204.45 160.863C1199.82 160.548 1195.96 161.978 1195.82 164.057Z" fill="white"/>
<path d="M1195.77 161.6C1197.48 160.109 1200.71 159.284 1204.53 159.544C1210.06 159.921 1214.08 162.396 1213.88 165.301C1213.68 168.205 1209.36 170.111 1203.83 169.735C1201.41 169.57 1199.14 168.98 1197.45 168.074C1195.43 166.993 1194.37 165.538 1194.48 163.979C1194.54 163.076 1195 162.27 1195.77 161.6V161.6ZM1210.85 165.697C1211.08 165.495 1211.2 165.295 1211.22 165.119C1211.28 164.261 1208.71 162.502 1204.34 162.204C1199.98 161.908 1197.2 163.303 1197.14 164.16C1197.11 164.508 1197.59 165.126 1198.71 165.723C1200.06 166.444 1201.99 166.937 1204.01 167.075C1207.48 167.31 1209.95 166.479 1210.85 165.697V165.697Z" fill="#4C241D"/>
<path d="M1210.47 155.607C1210.16 160.229 1211.59 164.09 1213.67 164.232C1215.75 164.374 1217.69 160.742 1218 156.12C1218.32 151.499 1216.89 147.638 1214.81 147.496C1212.73 147.354 1210.79 150.986 1210.47 155.607Z" fill="white"/>
<path d="M1212.35 147.129C1213.12 146.458 1213.98 146.113 1214.89 146.175C1216.45 146.281 1217.74 147.524 1218.54 149.675C1219.21 151.477 1219.49 153.802 1219.32 156.221C1218.95 161.751 1216.47 165.772 1213.56 165.573C1210.66 165.376 1208.75 161.057 1209.13 155.527C1209.39 151.715 1210.65 148.619 1212.35 147.129ZM1214.37 162.624C1215.26 161.842 1216.42 159.51 1216.66 156.04C1216.8 154.019 1216.57 152.035 1216.04 150.6C1215.6 149.414 1215.05 148.858 1214.71 148.835C1213.85 148.779 1212.09 151.342 1211.79 155.708C1211.49 160.075 1212.89 162.854 1213.75 162.913C1213.92 162.925 1214.14 162.826 1214.37 162.624V162.624Z" fill="#4C241D"/>
<path d="M1244.61 113.547C1245.17 113.062 1246.01 113.12 1246.49 113.675L1252.63 120.708C1253.11 121.263 1253.06 122.105 1252.5 122.589C1251.95 123.074 1251.1 123.016 1250.62 122.461L1244.48 115.428C1244 114.873 1244.06 114.031 1244.61 113.547Z" fill="#4C241D"/>
<path d="M1237.21 111.153C1237.77 110.668 1238.61 110.726 1239.1 111.281L1245.23 118.314C1245.72 118.869 1245.66 119.711 1245.1 120.195C1244.55 120.68 1243.71 120.622 1243.22 120.067L1237.09 113.034C1236.6 112.479 1236.66 111.637 1237.21 111.153Z" fill="#4C241D"/>
<path d="M1235.06 128.96C1235.61 128.476 1236.45 128.534 1236.94 129.089L1237.81 130.093C1238.3 130.648 1238.24 131.49 1237.69 131.975C1237.13 132.459 1236.29 132.401 1235.8 131.846L1234.93 130.842C1234.44 130.287 1234.5 129.445 1235.06 128.96Z" fill="#4C241D"/>
<path d="M1225.78 126.438C1226.33 125.954 1227.18 126.012 1227.66 126.566L1232.92 132.595C1233.4 133.15 1233.35 133.992 1232.79 134.476C1232.24 134.961 1231.39 134.903 1230.91 134.348L1225.65 128.32C1225.17 127.765 1225.22 126.923 1225.78 126.438Z" fill="#4C241D"/>
<path d="M1234.65 148.777C1235.21 148.293 1236.05 148.351 1236.53 148.906L1243.54 156.944C1244.03 157.498 1243.97 158.34 1243.42 158.825C1242.86 159.309 1242.02 159.251 1241.53 158.697L1234.52 150.659C1234.04 150.104 1234.1 149.262 1234.65 148.777Z" fill="#4C241D"/>
<path d="M1203.31 137.192C1203.87 136.707 1204.71 136.765 1205.19 137.32L1206.94 139.329C1207.43 139.884 1207.37 140.726 1206.82 141.211C1206.26 141.695 1205.42 141.637 1204.94 141.082L1203.18 139.073C1202.7 138.518 1202.76 137.676 1203.31 137.192Z" fill="#4C241D"/>
<path d="M1187.23 151.216C1187.79 150.732 1188.63 150.79 1189.12 151.344L1195.25 158.378C1195.74 158.932 1195.68 159.774 1195.12 160.259C1194.57 160.743 1193.73 160.686 1193.24 160.131L1187.11 153.098C1186.62 152.543 1186.68 151.701 1187.23 151.216Z" fill="#4C241D"/>
<path d="M1223.62 144.246C1224.18 143.762 1225.02 143.819 1225.5 144.374L1234.27 154.422C1234.75 154.976 1234.69 155.818 1234.14 156.303C1233.58 156.787 1232.74 156.729 1232.26 156.175L1223.49 146.127C1223.01 145.572 1223.06 144.731 1223.62 144.246Z" fill="#4C241D"/>
<path d="M1226.36 159.552C1226.91 159.068 1227.75 159.126 1228.24 159.681L1229.99 161.69C1230.47 162.245 1230.42 163.087 1229.86 163.571C1229.31 164.056 1228.47 163.998 1227.98 163.443L1226.23 161.434C1225.74 160.879 1225.8 160.037 1226.36 159.552Z" fill="#4C241D"/>
<path d="M1275.87 169.657C1276.42 169.172 1277.27 169.23 1277.75 169.785L1278.99 171.207C1279.47 171.762 1279.42 172.603 1278.86 173.088C1278.31 173.572 1277.46 173.515 1276.98 172.96L1275.74 171.538C1275.26 170.983 1275.31 170.141 1275.87 169.657V169.657Z" fill="#4C241D"/>
<path d="M1270.91 163.971C1271.46 163.486 1272.3 163.544 1272.79 164.099L1274.03 165.521C1274.51 166.076 1274.46 166.917 1273.9 167.402C1273.35 167.886 1272.5 167.829 1272.02 167.274L1270.78 165.852C1270.3 165.297 1270.35 164.455 1270.91 163.971Z" fill="#4C241D"/>
<path d="M1276.14 165.665L1277.56 164.425C1278.12 163.94 1278.96 163.998 1279.44 164.553C1279.93 165.108 1279.87 165.95 1279.31 166.434L1277.89 167.674C1277.34 168.159 1276.5 168.101 1276.01 167.546C1275.53 166.991 1275.58 166.149 1276.14 165.665Z" fill="#4C241D"/>
<path d="M1270.45 170.625L1271.88 169.385C1272.43 168.901 1273.27 168.958 1273.76 169.513C1274.24 170.068 1274.18 170.91 1273.63 171.395L1272.21 172.635C1271.65 173.119 1270.81 173.062 1270.33 172.507C1269.84 171.952 1269.9 171.11 1270.45 170.625Z" fill="#4C241D"/>
</g>
<g clip-path="url(#clip6)">
<path d="M1214.8 59.8945V66.5152H1138.66V59.8945H1185L1194.94 49.9634L1199.9 54.9289L1194.94 59.8945H1214.8Z" fill="#502601"/>
<path d="M1214.8 43.3423L1216.25 44.7972C1218.5 47.0453 1219.76 50.0942 1219.76 53.2734C1219.76 56.4526 1218.5 59.5014 1216.25 61.7495L1214.8 63.2044L1213.34 61.7495C1211.09 59.5014 1209.83 56.4526 1209.83 53.2734C1209.83 50.0942 1211.09 47.0453 1213.34 44.7972L1214.8 43.3423Z" fill="#008100"/>
<path d="M1234.66 63.2048L1233.2 64.6597C1230.96 66.9074 1227.91 68.1704 1224.73 68.1704C1221.55 68.1704 1218.5 66.9074 1216.25 64.6597L1214.8 63.2048L1216.25 61.7499C1218.5 59.5022 1221.55 58.2393 1224.73 58.2393C1227.91 58.2393 1230.96 59.5022 1233.2 61.7499L1234.66 63.2048Z" fill="#33BC00"/>
<path d="M1170.11 66.5151H1176.73V76.4462H1170.11V66.5151Z" fill="#763A02"/>
<path d="M1153.56 83.0669H1194.94C1197.68 83.0669 1199.9 85.29 1199.9 88.0324C1199.9 90.7749 1197.68 92.998 1194.94 92.998H1153.56C1150.81 92.998 1148.59 90.7749 1148.59 88.0324C1148.59 85.29 1150.81 83.0669 1153.56 83.0669Z" fill="#FF8800"/>
<path d="M1146.94 92.998H1201.56C1204.3 92.998 1206.52 95.2212 1206.52 97.9636C1206.52 100.706 1204.3 102.929 1201.56 102.929H1146.94C1144.19 102.929 1141.97 100.706 1141.97 97.9636C1141.97 95.2212 1144.19 92.998 1146.94 92.998Z" fill="#FFA900"/>
<path d="M1153.56 122.791H1194.94C1197.68 122.791 1199.9 125.014 1199.9 127.757C1199.9 130.499 1197.68 132.722 1194.94 132.722H1153.56C1150.81 132.722 1148.59 130.499 1148.59 127.757C1148.59 125.014 1150.81 122.791 1153.56 122.791Z" fill="#FF8800"/>
<path d="M1146.94 112.86H1201.56C1204.3 112.86 1206.52 115.083 1206.52 117.825C1206.52 120.568 1204.3 122.791 1201.56 122.791H1146.94C1144.19 122.791 1141.97 120.568 1141.97 117.825C1141.97 115.083 1144.19 112.86 1146.94 112.86Z" fill="#FFA900"/>
<path d="M1143.62 102.929H1204.87C1207.61 102.929 1209.83 105.152 1209.83 107.894C1209.83 110.637 1207.61 112.86 1204.87 112.86H1143.62C1140.88 112.86 1138.66 110.637 1138.66 107.894C1138.66 105.152 1140.88 102.929 1143.62 102.929Z" fill="#FEBD33"/>
<path d="M1161.83 76.4463H1186.66C1188.49 76.4463 1189.97 77.9283 1189.97 79.7566C1189.97 81.585 1188.49 83.067 1186.66 83.067H1161.83C1160 83.067 1158.52 81.585 1158.52 79.7566C1158.52 77.9283 1160 76.4463 1161.83 76.4463Z" fill="#E47700"/>
<path d="M1161.83 132.723H1186.66C1188.49 132.723 1189.97 134.205 1189.97 136.033C1189.97 137.861 1188.49 139.343 1186.66 139.343H1161.83C1160 139.343 1158.52 137.861 1158.52 136.033C1158.52 134.205 1160 132.723 1161.83 132.723Z" fill="#E47700"/>
<path d="M1166.8 122.791H1180.04V116.171C1180.04 112.514 1177.07 109.55 1173.42 109.55C1169.76 109.55 1166.8 112.514 1166.8 116.171V122.791Z" fill="#763A02"/>
<path d="M1221.42 78.1012C1219.59 76.2729 1216.63 76.2729 1214.8 78.1012C1212.97 79.9296 1212.97 82.8936 1214.8 84.722L1216.45 86.3771L1223.07 79.7564L1221.42 78.1012Z" fill="#763A02"/>
<path d="M1216.45 86.3802L1223.07 79.7593L1228.87 85.5528L1222.25 92.1737L1216.45 86.3802Z" fill="#FEBD33"/>
<path d="M1229.69 86.3774L1228.87 85.5498L1222.25 92.1705L1223.07 92.9981C1224.9 94.8265 1227.87 94.8265 1229.69 92.9981C1231.52 91.1698 1231.52 88.2056 1229.69 86.3774Z" fill="#763A02"/>
<path d="M1219.76 83.067L1225.41 77.4162C1226.03 76.7953 1226.88 76.4465 1227.75 76.4463H1228.04C1229.87 76.4463 1231.35 77.9283 1231.35 79.7566C1231.35 81.585 1229.87 83.067 1228.04 83.067H1219.76Z" fill="#81D1FE"/>
<path d="M1219.76 83.0669L1214.11 88.7177C1213.49 89.3384 1213.14 90.1802 1213.14 91.0581V91.3428C1213.14 93.1711 1214.62 94.6531 1216.45 94.6531C1218.28 94.6531 1219.76 93.1711 1219.76 91.3428V83.0669Z" fill="#08B7FC"/>
<path d="M1234.37 60.5784C1231.82 58.0117 1228.35 56.5729 1224.73 56.5828C1223.42 56.5828 1222.12 56.7707 1220.86 57.1406C1221.23 55.8846 1221.42 54.5819 1221.42 53.2725C1221.43 49.6524 1219.99 46.1788 1217.42 43.6261L1214.8 41.001L1212.17 43.6261C1208.32 47.4446 1207.12 53.203 1209.15 58.238H1198.93L1202.24 54.9277L1194.93 47.6217L1184.32 58.238H1137V68.1691H1168.45V74.7898H1161.83C1159.09 74.7898 1156.87 77.0129 1156.87 79.7554C1156.87 80.3206 1156.97 80.8805 1157.17 81.4106H1153.56C1149.9 81.4106 1146.93 84.3748 1146.93 88.0313C1146.94 89.1969 1147.26 90.3398 1147.85 91.3416H1146.93C1143.28 91.3431 1140.32 94.3085 1140.32 97.965C1140.32 99.2848 1140.71 100.574 1141.45 101.668C1138.01 102.845 1136.18 106.585 1137.36 110.023C1138.01 111.948 1139.53 113.46 1141.45 114.119C1139.4 117.149 1140.2 121.264 1143.23 123.311C1144.32 124.05 1145.61 124.445 1146.93 124.445H1147.85C1147.26 125.447 1146.94 126.59 1146.93 127.756C1146.93 131.412 1149.9 134.376 1153.56 134.376H1157.17C1156.97 134.906 1156.87 135.466 1156.87 136.031C1156.87 138.774 1159.09 140.997 1161.83 140.997H1186.66C1189.4 140.997 1191.62 138.774 1191.62 136.031C1191.62 135.466 1191.52 134.906 1191.32 134.376H1194.93C1198.59 134.376 1201.56 131.412 1201.56 127.756C1201.55 126.59 1201.23 125.447 1200.64 124.445H1201.56C1205.21 124.444 1208.17 121.478 1208.17 117.822C1208.17 116.502 1207.78 115.212 1207.04 114.119C1210.48 112.942 1212.31 109.202 1211.13 105.764C1210.48 103.839 1208.96 102.327 1207.04 101.668C1209.09 98.6383 1208.29 94.5227 1205.26 92.4761C1204.17 91.7372 1202.88 91.3423 1201.56 91.3416H1200.64C1201.23 90.3398 1201.55 89.1969 1201.56 88.0313C1201.56 84.3748 1198.59 81.4106 1194.93 81.4106H1191.32C1191.52 80.8805 1191.62 80.3206 1191.62 79.7554C1191.62 77.0129 1189.4 74.7898 1186.66 74.7898H1178.38V68.1691H1216.45V67.0105C1221.88 71.1712 1229.54 70.6647 1234.37 65.827L1237 63.2036L1234.37 60.5784ZM1214.51 45.9665L1214.8 45.6818L1215.08 45.9665C1219.12 50.0016 1219.12 56.5433 1215.08 60.5784L1214.8 60.8631L1214.51 60.5784C1214.03 60.09 1213.59 59.5543 1213.21 58.9795C1210.49 54.8846 1211.04 49.4426 1214.51 45.9682L1214.51 45.9665ZM1143.62 117.825C1143.62 115.996 1145.11 114.514 1146.93 114.514H1165.31C1165.29 114.574 1165.31 114.635 1165.29 114.695C1165.19 115.181 1165.14 115.674 1165.14 116.169V121.135H1146.93C1145.11 121.135 1143.62 119.653 1143.62 117.825ZM1177.69 113.687C1178.14 114.437 1178.38 115.295 1178.38 116.169V121.135H1168.45V116.169C1168.44 113.438 1170.64 111.212 1173.37 111.198C1175.15 111.189 1176.8 112.14 1177.69 113.687ZM1188.31 136.031C1188.31 136.946 1187.57 137.687 1186.66 137.687H1161.83C1160.92 137.687 1160.18 136.946 1160.18 136.031C1160.18 135.117 1160.92 134.376 1161.83 134.376H1186.66C1187.57 134.376 1188.31 135.117 1188.31 136.031ZM1198.25 127.756C1198.25 129.584 1196.76 131.066 1194.93 131.066H1153.56C1151.73 131.066 1150.24 129.584 1150.24 127.756C1150.24 125.927 1151.73 124.445 1153.56 124.445H1194.93C1196.76 124.445 1198.25 125.927 1198.25 127.756ZM1201.56 121.135H1181.69V116.169C1181.69 115.674 1181.64 115.18 1181.54 114.695C1181.53 114.635 1181.54 114.574 1181.52 114.514H1201.56C1203.38 114.514 1204.87 115.996 1204.87 117.825C1204.87 119.653 1203.38 121.135 1201.56 121.135ZM1208.18 107.893C1208.18 109.722 1206.69 111.204 1204.87 111.204H1180C1179.99 111.187 1179.98 111.172 1179.96 111.154C1179.9 111.078 1179.84 111.01 1179.78 110.936C1179.61 110.744 1179.46 110.555 1179.28 110.378C1179.19 110.29 1179.1 110.212 1179.01 110.128C1178.85 109.979 1178.68 109.832 1178.52 109.696C1178.41 109.613 1178.31 109.53 1178.2 109.461C1178.04 109.338 1177.86 109.223 1177.68 109.113C1177.57 109.042 1177.45 108.976 1177.33 108.911C1177.15 108.812 1176.97 108.721 1176.78 108.637C1176.65 108.58 1176.53 108.526 1176.41 108.471C1176.21 108.393 1176.01 108.327 1175.81 108.266C1175.69 108.228 1175.57 108.186 1175.44 108.153C1175.22 108.095 1174.99 108.054 1174.76 108.016C1174.66 107.998 1174.55 107.971 1174.43 107.956C1173.75 107.864 1173.06 107.864 1172.38 107.956C1172.27 107.971 1172.16 107.996 1172.05 108.016C1171.82 108.054 1171.6 108.095 1171.37 108.153C1171.25 108.186 1171.13 108.228 1171 108.266C1170.8 108.329 1170.6 108.393 1170.41 108.471C1170.28 108.521 1170.16 108.575 1170.04 108.637C1169.85 108.723 1169.67 108.812 1169.48 108.911C1169.37 108.976 1169.25 109.044 1169.13 109.113C1168.96 109.223 1168.78 109.338 1168.61 109.461C1168.51 109.537 1168.4 109.613 1168.3 109.696C1168.13 109.832 1167.97 109.979 1167.8 110.128C1167.71 110.211 1167.62 110.293 1167.53 110.378C1167.37 110.555 1167.2 110.744 1167.04 110.936C1166.98 111.01 1166.91 111.078 1166.85 111.154C1166.84 111.171 1166.82 111.186 1166.81 111.204H1143.62C1141.8 111.204 1140.31 109.722 1140.31 107.893C1140.31 106.065 1141.8 104.583 1143.62 104.583H1204.87C1206.69 104.583 1208.18 106.065 1208.18 107.893ZM1204.87 97.9623C1204.87 99.7907 1203.38 101.273 1201.56 101.273H1146.93C1145.11 101.273 1143.62 99.7907 1143.62 97.9623C1143.62 96.134 1145.11 94.652 1146.93 94.652H1201.56C1203.38 94.652 1204.87 96.134 1204.87 97.9623ZM1198.25 88.0313C1198.25 89.8596 1196.76 91.3416 1194.93 91.3416H1153.56C1151.73 91.3416 1150.24 89.8596 1150.24 88.0313C1150.24 86.2029 1151.73 84.7209 1153.56 84.7209H1194.93C1196.76 84.7209 1198.25 86.2029 1198.25 88.0313ZM1186.66 78.1002C1187.57 78.1002 1188.31 78.8413 1188.31 79.7554C1188.31 80.6694 1187.57 81.4106 1186.66 81.4106H1161.83C1160.92 81.4106 1160.18 80.6694 1160.18 79.7554C1160.18 78.8413 1160.92 78.1002 1161.83 78.1002H1186.66ZM1175.07 74.7898H1171.76V68.1691H1175.07V74.7898ZM1213.14 64.8587H1140.31V61.5484H1185.69L1194.93 52.3025L1197.56 54.9277L1190.94 61.5484H1210.98C1211.01 61.5964 1211.05 61.6345 1211.09 61.6808C1211.43 62.1149 1211.79 62.5285 1212.17 62.9189L1212.45 63.2036L1213.14 63.8888L1213.14 64.8587ZM1232.03 63.4883C1228 67.5226 1221.46 67.5226 1217.42 63.4883L1217.14 63.2036L1217.42 62.9189C1221.46 58.8846 1228 58.8846 1232.03 62.9189L1232.32 63.2036L1232.03 63.4883Z" fill="black"/>
<path d="M1230.86 85.2069L1229.98 84.3247C1232.5 83.2498 1233.68 80.3332 1232.6 77.8103C1231.82 75.9803 1230.03 74.7921 1228.04 74.7908H1227.75C1226.44 74.7877 1225.17 75.3116 1224.24 76.2457L1223.07 77.4159L1222.59 76.931C1220.98 75.3333 1218.64 74.7205 1216.45 75.3255V71.4805H1213.14V76.446H1208.18V79.7564H1212.02C1211.42 81.9416 1212.03 84.2835 1213.63 85.8921L1214.11 86.3771L1212.94 87.5473C1212.01 88.4763 1211.48 89.7404 1211.49 91.058V91.3427C1211.49 94.0851 1213.71 96.307 1216.46 96.3053C1218.44 96.3041 1220.24 95.1158 1221.02 93.2858L1221.9 94.168C1223.92 96.195 1227.05 96.6034 1229.52 95.1612L1231.83 97.4784L1234.17 95.138L1231.86 92.8207C1233.28 90.3489 1232.87 87.2308 1230.86 85.2069ZM1227.75 78.1012H1228.04C1228.95 78.1012 1229.69 78.8423 1229.69 79.7564C1229.69 80.6705 1228.95 81.4116 1228.04 81.4116H1223.76L1224.24 80.9266L1226.58 78.5862C1226.9 78.2766 1227.32 78.1024 1227.75 78.1012ZM1220.25 79.2714L1220.73 79.7564L1218.59 81.8949L1216.45 84.0367L1215.97 83.5517C1214.79 82.3691 1214.79 80.4557 1215.97 79.2731C1217.15 78.0954 1219.06 78.0954 1220.25 79.2731L1220.25 79.2714ZM1218.11 91.3427C1218.11 92.2567 1217.37 92.9978 1216.45 92.9978C1215.54 92.9978 1214.8 92.2567 1214.8 91.3427V91.058C1214.8 90.6193 1214.97 90.1987 1215.28 89.8877L1217.62 87.5473L1218.11 87.0624V91.3427ZM1221.42 89.0022V84.7219H1225.7L1226.53 85.5495L1222.25 89.8298L1221.42 89.0022ZM1224.62 92.1355L1228.83 87.9247C1229.81 89.2704 1229.52 91.1556 1228.17 92.1355C1227.11 92.9054 1225.68 92.9054 1224.62 92.1355Z" fill="black"/>
</g>
<path d="M1743.29 193.62L1747.36 197.306L1752.73 196.152C1754.98 195.669 1757.23 196.966 1757.93 199.153L1759.62 204.382L1764.85 206.069C1767.03 206.774 1768.33 209.02 1767.85 211.267L1766.69 216.639L1770.38 220.714C1771.92 222.418 1771.92 225.012 1770.38 226.716L1766.69 230.791L1767.85 236.163C1768.33 238.409 1767.03 240.655 1764.85 241.36L1759.62 243.047L1757.93 248.277C1757.23 250.463 1754.98 251.76 1752.73 251.277L1747.36 250.123L1743.29 253.809C1741.58 255.35 1738.99 255.35 1737.28 253.809L1733.21 250.123L1727.84 251.277C1725.59 251.76 1723.34 250.463 1722.64 248.277L1720.95 243.047L1715.72 241.36C1713.54 240.655 1712.24 238.409 1712.72 236.163L1713.88 230.791L1710.19 226.716C1708.65 225.012 1708.65 222.418 1710.19 220.714L1713.88 216.639L1712.72 211.267C1712.24 209.02 1713.54 206.774 1715.72 206.069L1720.95 204.382L1722.64 199.153C1723.34 196.966 1725.59 195.669 1727.84 196.152L1733.21 197.306L1737.28 193.62C1738.99 192.08 1741.58 192.08 1743.29 193.62V193.62Z" fill="#FFB357"/>
<path d="M1740.29 247.355C1753.34 247.355 1763.93 236.771 1763.93 223.715C1763.93 210.659 1753.34 200.075 1740.29 200.075C1727.23 200.075 1716.65 210.659 1716.65 223.715C1716.65 236.771 1727.23 247.355 1740.29 247.355Z" fill="#FCE3A0"/>
<path d="M1729.47 223.715C1729.47 212.902 1736.77 203.761 1746.7 200.959C1744.66 200.383 1742.51 200.075 1740.29 200.075C1727.25 200.075 1716.65 210.68 1716.65 223.715C1716.65 236.75 1727.25 247.355 1740.29 247.355C1742.51 247.355 1744.66 247.046 1746.7 246.47C1736.77 243.668 1729.47 234.528 1729.47 223.715V223.715Z" fill="#FFCE71"/>
<path d="M1732.78 222.209C1732.77 224.14 1730.8 225.698 1728.38 225.691C1725.95 225.683 1723.99 224.112 1724 222.182C1724.01 220.251 1725.98 218.692 1728.4 218.7C1730.82 218.707 1732.78 220.279 1732.78 222.209V222.209Z" fill="#FF8E9E"/>
<path d="M1747.79 222.256C1747.79 224.187 1749.75 225.758 1752.17 225.765C1754.59 225.773 1756.56 224.214 1756.57 222.284C1756.58 220.353 1754.62 218.782 1752.19 218.774C1749.77 218.767 1747.8 220.325 1747.79 222.256V222.256Z" fill="#FF8E9E"/>
<path d="M1705.22 275.798H1704.36C1699.53 275.798 1695.61 279.715 1695.61 284.548L1689.8 289.535H1699.75C1704.58 289.535 1708.5 285.618 1708.5 280.785V279.079C1708.5 277.267 1707.03 275.798 1705.22 275.798Z" fill="#5FD9B3"/>
<path d="M1689.8 259.359V289.535H1695.66C1695.66 288.328 1695.66 260.718 1695.66 259.359H1689.8Z" fill="#00CE8E"/>
<path d="M1700.96 254.189C1704.03 252.974 1705.65 252.495 1707.96 250.179C1712.83 245.308 1711.06 242.053 1707.96 238.953C1704.86 235.853 1701.61 234.081 1696.74 238.953C1694.42 241.268 1693.94 242.883 1692.73 245.956V262.422C1693.94 265.495 1694.42 267.109 1696.74 269.425C1701.61 274.297 1704.86 272.525 1707.96 269.425C1711.06 266.325 1712.83 263.07 1707.96 258.198C1705.65 255.883 1704.03 255.404 1700.96 254.189Z" fill="#FFDBE0"/>
<path d="M1692.73 245.957C1691.51 242.884 1691.03 241.269 1688.72 238.954C1683.85 234.082 1680.59 235.854 1677.49 238.954C1674.39 242.054 1672.62 245.309 1677.49 250.18C1679.81 252.496 1681.42 252.974 1684.49 254.19C1681.42 255.405 1679.81 255.884 1677.49 258.199C1672.62 263.071 1674.39 266.326 1677.49 269.426C1680.59 272.526 1683.85 274.298 1688.72 269.426C1691.03 267.11 1691.51 265.496 1692.73 262.423V245.957Z" fill="#FFB5C0"/>
<path d="M1698.54 260.005C1701.75 256.791 1701.75 251.579 1698.54 248.364C1695.32 245.149 1690.11 245.149 1686.9 248.364C1683.68 251.579 1683.68 256.791 1686.9 260.005C1690.11 263.22 1695.32 263.22 1698.54 260.005Z" fill="#FFCE71"/>
<path d="M1690.16 254.189C1690.16 250.639 1692.41 247.613 1695.56 246.458C1694.68 246.134 1693.72 245.957 1692.73 245.957C1688.18 245.957 1684.49 249.642 1684.49 254.189C1684.49 258.736 1688.18 262.422 1692.73 262.422C1693.72 262.422 1694.68 262.245 1695.56 261.921C1692.41 260.765 1690.16 257.74 1690.16 254.189Z" fill="#FFB357"/>
<path d="M1773 223.715C1773 222.24 1772.46 220.825 1771.47 219.731L1768.28 216.213L1769.28 211.575C1769.37 211.163 1769.41 210.743 1769.41 210.324C1769.41 207.739 1767.76 205.469 1765.3 204.675L1760.78 203.219L1759.33 198.703C1758.53 196.241 1756.26 194.587 1753.68 194.587C1753.26 194.587 1752.84 194.631 1752.43 194.72L1747.79 195.717L1744.27 192.534C1743.17 191.545 1741.76 191 1740.29 191C1738.81 191 1737.4 191.545 1736.3 192.534L1732.78 195.716L1728.14 194.72C1727.73 194.631 1727.31 194.587 1726.89 194.587C1724.31 194.587 1722.04 196.241 1721.24 198.703L1720.51 200.966C1720.27 201.736 1720.69 202.562 1721.46 202.81C1722.23 203.058 1723.05 202.636 1723.3 201.866L1724.03 199.602C1724.44 198.354 1725.59 197.516 1726.89 197.516C1727.11 197.516 1727.32 197.539 1727.53 197.584L1732.9 198.738C1733.36 198.837 1733.84 198.708 1734.19 198.392L1738.27 194.707C1738.82 194.206 1739.54 193.93 1740.29 193.93C1741.03 193.93 1741.75 194.206 1742.3 194.707L1746.38 198.393C1746.73 198.709 1747.21 198.837 1747.67 198.738L1753.04 197.584C1753.25 197.539 1753.46 197.516 1753.68 197.516C1754.98 197.516 1756.13 198.355 1756.54 199.603L1758.22 204.832C1758.37 205.28 1758.72 205.632 1759.17 205.777L1764.4 207.463C1765.65 207.865 1766.48 209.015 1766.48 210.324C1766.48 210.536 1766.46 210.75 1766.42 210.959L1765.26 216.331C1765.16 216.792 1765.29 217.272 1765.61 217.621L1769.29 221.696C1769.79 222.251 1770.07 222.967 1770.07 223.715C1770.07 224.462 1769.79 225.179 1769.29 225.733L1765.61 229.809C1765.29 230.158 1765.16 230.638 1765.26 231.099L1766.42 236.471C1766.46 236.68 1766.48 236.894 1766.48 237.106C1766.48 238.415 1765.65 239.564 1764.4 239.967L1759.17 241.653C1758.72 241.798 1758.37 242.149 1758.22 242.598L1756.54 247.827C1756.13 249.075 1754.98 249.913 1753.68 249.913C1753.46 249.913 1753.25 249.891 1753.04 249.846L1747.67 248.691C1747.21 248.593 1746.73 248.721 1746.38 249.037L1742.3 252.723C1741.75 253.224 1741.03 253.5 1740.28 253.5C1739.54 253.5 1738.82 253.224 1738.27 252.723L1734.19 249.037C1733.84 248.721 1733.36 248.593 1732.9 248.691L1727.53 249.846C1727.32 249.891 1727.11 249.913 1726.89 249.913C1725.59 249.913 1724.44 249.075 1724.03 247.827L1722.35 242.598C1722.2 242.149 1721.85 241.798 1721.4 241.653L1716.17 239.967C1714.92 239.564 1714.09 238.415 1714.09 237.106C1714.09 236.894 1714.11 236.68 1714.15 236.471L1715.31 231.099C1715.41 230.638 1715.28 230.158 1714.96 229.809L1711.28 225.733C1710.78 225.179 1710.5 224.462 1710.5 223.715C1710.5 222.968 1710.78 222.251 1711.28 221.697L1714.96 217.622C1715.28 217.272 1715.41 216.792 1715.31 216.331L1714.15 210.959C1714.11 210.75 1714.09 210.537 1714.09 210.324C1714.09 209.016 1714.92 207.866 1716.17 207.463L1718.79 206.619C1719.56 206.371 1719.98 205.545 1719.74 204.775C1719.49 204.005 1718.66 203.582 1717.89 203.83L1715.27 204.675C1712.81 205.469 1711.16 207.739 1711.16 210.324C1711.16 210.743 1711.2 211.164 1711.29 211.575L1712.29 216.213L1709.1 219.732C1708.12 220.826 1707.57 222.241 1707.57 223.716C1707.57 225.191 1708.12 226.605 1709.1 227.699L1712.29 231.218L1711.29 235.856C1711.2 236.267 1711.16 236.688 1711.16 237.106C1711.16 239.691 1712.81 241.962 1715.27 242.756L1719.79 244.212L1721.25 248.727C1722.04 251.189 1724.31 252.844 1726.89 252.844C1727.31 252.844 1727.73 252.799 1728.14 252.711L1732.78 251.714L1736.3 254.896C1737.4 255.886 1738.81 256.43 1740.29 256.43C1741.76 256.43 1743.17 255.886 1744.27 254.896L1747.79 251.714L1752.43 252.711C1752.84 252.799 1753.26 252.844 1753.68 252.844C1756.26 252.844 1758.53 251.189 1759.33 248.727L1760.78 244.212L1765.3 242.756C1767.76 241.962 1769.41 239.691 1769.41 237.106C1769.41 236.687 1769.37 236.267 1769.28 235.856L1768.28 231.218L1771.47 227.699C1772.46 226.604 1773 225.19 1773 223.715V223.715Z" fill="black"/>
<path d="M1729.74 219.816C1730.55 219.816 1731.2 219.16 1731.2 218.351V216.398C1731.2 215.589 1730.55 214.933 1729.74 214.933C1728.93 214.933 1728.27 215.589 1728.27 216.398V218.351C1728.27 219.16 1728.93 219.816 1729.74 219.816Z" fill="black"/>
<path d="M1750.83 219.816C1751.64 219.816 1752.3 219.16 1752.3 218.351V216.398C1752.3 215.589 1751.64 214.933 1750.83 214.933C1750.02 214.933 1749.37 215.589 1749.37 216.398V218.351C1749.37 219.16 1750.02 219.816 1750.83 219.816Z" fill="black"/>
<path d="M1740.38 223.332C1742.27 223.332 1744.02 222.238 1744.83 220.545C1745.18 219.816 1744.87 218.941 1744.14 218.592C1743.41 218.243 1742.54 218.552 1742.19 219.282C1741.86 219.962 1741.15 220.402 1740.38 220.402C1739.61 220.402 1738.9 219.962 1738.58 219.282C1738.23 218.552 1737.36 218.243 1736.63 218.592C1735.9 218.941 1735.59 219.816 1735.94 220.545C1736.75 222.238 1738.49 223.332 1740.38 223.332V223.332Z" fill="black"/>
<path d="M1712.45 244.492C1712.45 241.726 1710.61 239.525 1709 237.917C1707.39 236.309 1705.19 234.463 1702.42 234.463C1700.22 234.463 1698.02 235.593 1695.7 237.917C1694.2 239.417 1693.39 240.672 1692.73 242.085C1692.06 240.672 1691.25 239.417 1689.75 237.917C1687.43 235.592 1685.23 234.462 1683.03 234.462C1680.26 234.462 1678.06 236.309 1676.45 237.917C1674.85 239.525 1673 241.726 1673 244.492C1673 246.692 1674.13 248.891 1676.45 251.216C1677.95 252.716 1679.21 253.526 1680.62 254.189C1679.21 254.853 1677.95 255.663 1676.45 257.163C1674.13 259.488 1673 261.687 1673 263.886C1673 266.652 1674.85 268.853 1676.45 270.461C1678.06 272.07 1680.26 273.916 1683.03 273.916C1684.78 273.916 1686.52 273.2 1688.33 271.743V289.535C1688.33 290.344 1688.99 291 1689.8 291C1690.61 291 1691.26 290.344 1691.26 289.535V268.743C1691.88 267.926 1692.33 267.137 1692.73 266.291C1693.12 267.137 1693.57 267.926 1694.19 268.744V289.534C1694.19 289.583 1694.19 289.632 1694.2 289.68C1694.27 290.419 1694.91 291 1695.66 291H1699.75C1705.38 291 1709.96 286.418 1709.96 280.785V279.079C1709.96 276.462 1707.83 274.333 1705.22 274.333H1704.36C1701.53 274.333 1698.97 275.486 1697.12 277.345V271.743C1698.93 273.2 1700.68 273.916 1702.42 273.916C1705.19 273.916 1707.39 272.07 1709 270.461C1710.33 269.134 1711.91 267.324 1712.34 265.096C1712.49 264.301 1711.97 263.533 1711.18 263.379C1710.38 263.226 1709.61 263.745 1709.46 264.54C1709.24 265.669 1708.46 266.856 1706.93 268.39C1705.11 270.21 1703.76 270.986 1702.42 270.986C1701.04 270.986 1699.52 270.137 1697.77 268.39C1696.15 266.772 1695.54 265.545 1694.79 263.664C1698.48 262.861 1701.4 259.946 1702.2 256.251C1704.13 257.02 1705.3 257.605 1706.93 259.235C1707.31 259.621 1707.66 260.004 1707.96 260.373C1708.47 261 1709.4 261.095 1710.02 260.584C1710.65 260.073 1710.74 259.151 1710.23 258.523C1709.87 258.077 1709.46 257.62 1709 257.163C1707.5 255.663 1706.24 254.853 1704.83 254.19C1706.24 253.526 1707.5 252.716 1709 251.216C1711.32 248.891 1712.45 246.692 1712.45 244.492ZM1678.53 249.144C1676.78 247.397 1675.93 245.875 1675.93 244.492C1675.93 243.156 1676.71 241.809 1678.53 239.989C1680.35 238.169 1681.69 237.392 1683.03 237.392C1684.41 237.392 1685.93 238.242 1687.68 239.989C1689.31 241.619 1689.9 242.786 1690.67 244.714C1686.97 245.517 1684.05 248.433 1683.25 252.128C1681.32 251.358 1680.16 250.774 1678.53 249.144V249.144ZM1683.03 270.986C1681.69 270.986 1680.35 270.21 1678.53 268.39C1676.71 266.57 1675.93 265.223 1675.93 263.886C1675.93 262.503 1676.78 260.982 1678.53 259.235C1680.16 257.605 1681.32 257.02 1683.25 256.251C1684.05 259.946 1686.97 262.861 1690.66 263.664C1689.91 265.545 1689.3 266.772 1687.68 268.39C1685.93 270.137 1684.41 270.986 1683.03 270.986V270.986ZM1704.36 277.263H1705.22C1706.22 277.263 1707.03 278.078 1707.03 279.079V280.785C1707.03 284.802 1703.77 288.07 1699.75 288.07H1699.19L1703.32 283.938C1703.9 283.366 1703.9 282.439 1703.32 281.867C1702.75 281.295 1701.83 281.295 1701.25 281.867L1697.12 285.999V283.702C1697.54 280.082 1700.63 277.263 1704.36 277.263V277.263ZM1692.73 260.957C1688.99 260.957 1685.96 257.921 1685.96 254.189C1685.96 250.458 1688.99 247.421 1692.73 247.421C1696.46 247.421 1699.49 250.458 1699.49 254.189C1699.49 257.921 1696.46 260.957 1692.73 260.957ZM1702.2 252.128C1701.4 248.433 1698.48 245.518 1694.79 244.714C1695.56 242.786 1696.14 241.619 1697.77 239.989C1699.52 238.242 1701.04 237.392 1702.42 237.392C1703.76 237.392 1705.11 238.169 1706.93 239.989C1708.75 241.809 1709.52 243.156 1709.52 244.492C1709.52 245.875 1708.67 247.397 1706.93 249.144C1705.3 250.774 1704.13 251.359 1702.2 252.128Z" fill="black"/>
<path d="M1740.29 248.82C1754.13 248.82 1765.39 237.558 1765.39 223.715C1765.39 209.872 1754.13 198.61 1740.29 198.61C1726.44 198.61 1715.18 209.872 1715.18 223.715C1715.18 237.558 1726.44 248.82 1740.29 248.82ZM1740.29 201.54C1752.51 201.54 1762.46 211.487 1762.46 223.715C1762.46 235.942 1752.51 245.89 1740.29 245.89C1728.06 245.89 1718.11 235.942 1718.11 223.715C1718.11 211.487 1728.06 201.54 1740.29 201.54Z" fill="black"/>
</g>
<defs>
<clipPath id="clip0">
<rect width="1920" height="440" fill="white"/>
</clipPath>
<clipPath id="clip1">
<rect width="150" height="150" fill="white" transform="translate(46.1974 -4) rotate(30.5296)"/>
</clipPath>
<clipPath id="clip2">
<rect width="100" height="100" fill="white" transform="translate(156 47)"/>
</clipPath>
<clipPath id="clip3">
<rect width="100" height="100" fill="white" transform="translate(435 97.2339) rotate(-29.4943)"/>
</clipPath>
<clipPath id="clip4">
<rect width="80" height="80" fill="white" transform="translate(752.773 315) rotate(30.6417)"/>
</clipPath>
<clipPath id="clip5">
<rect width="100" height="100" fill="white" transform="translate(1310.09 164.355) rotate(138.899)"/>
</clipPath>
<clipPath id="clip6">
<rect width="100" height="100" fill="white" transform="translate(1137 41)"/>
</clipPath>
</defs>
</svg>
