<svg width="100" height="100" viewBox="0 0 100 100" fill="none" xmlns="http://www.w3.org/2000/svg">
<path d="M73.4375 0C71.2408 0 28.058 0 26.5625 0C20.1008 0 14.8438 5.25703 14.8438 11.7188V88.2812C14.8438 94.743 20.1008 100 26.5625 100H73.4375C79.8992 100 85.1562 94.743 85.1562 88.2812V11.7188C85.1562 5.25703 79.8992 0 73.4375 0ZM77.3438 88.2812C77.3438 90.4352 75.5914 92.1875 73.4375 92.1875H26.5625C24.4086 92.1875 22.6562 90.4352 22.6562 88.2812V11.7188C22.6562 9.56484 24.4086 7.8125 26.5625 7.8125H33.5213L34.335 10.2303C34.8697 11.8199 36.36 12.8906 38.0371 12.8906H61.9629C63.64 12.8906 65.1303 11.8199 65.665 10.2303L66.4787 7.8125H73.4375C75.5914 7.8125 77.3438 9.56484 77.3438 11.7188V88.2812Z" fill="#FEC827"/>
</svg>
