<svg width="50" height="50" viewBox="0 0 50 50" fill="none" xmlns="http://www.w3.org/2000/svg">
<path d="M46.0533 50H40.9869C40.9869 41.453 33.818 34.502 25 34.502C16.1819 34.502 9.01556 41.4556 9.01556 50H3.94919C3.94919 38.6564 13.3954 29.4356 25.0025 29.4356C36.607 29.4356 46.0533 38.6564 46.0533 50Z" fill="#FF9F00"/>
<path d="M25.0025 27.789C17.3447 27.789 11.1105 21.5523 11.1105 13.8945C11.108 6.23417 17.3422 0 25.0025 0C32.6654 0 38.8996 6.23163 38.8996 13.8945C38.8996 21.5574 32.6654 27.789 25.0025 27.789ZM25.0025 5.06637C20.1337 5.06637 16.1744 9.02574 16.1744 13.8945C16.1744 18.7633 20.1337 22.7227 25.0025 22.7227C29.8738 22.7227 33.8332 18.7633 33.8332 13.8945C33.8332 9.02574 29.8688 5.06637 25.0025 5.06637Z" fill="#FF9F00"/>
</svg>
