<svg width="1920" height="320" viewBox="0 0 1920 320" fill="none" xmlns="http://www.w3.org/2000/svg">
<path d="M0 64L8.26667 53.3C16.4 43 33.3333 21 49.3333 53.3C65.6 85 82.6667 171 98.6667 181.3C114.933 192 130.667 128 148 128C164.133 128 180 192 197.333 186.7C213.333 181 229.333 107 246.667 112C262.533 117 278.667 203 296 197.3C311.733 192 328 96 344 58.7C361.067 21 377.333 43 393.333 64C410.267 85 426.667 107 442.667 138.7C459.467 171 476 213 492 202.7C508.667 192 525.333 128 541.333 90.7C558 53 574.667 43 590.667 74.7C607.2 107 624 181 640 208C656.4 235 673.333 213 689.333 186.7C705.6 160 722.667 128 738.667 101.3C754.933 75 770.667 53 788 58.7C804.133 64 820 96 837.333 117.3C853.333 139 869.333 149 886.667 165.3C902.533 181 918.667 203 936 186.7C951.733 171 968 117 984 85.3C1001.07 53 1017.33 43 1033.33 53.3C1050.27 64 1066.67 96 1082.67 90.7C1099.47 85 1116 43 1132 53.3C1148.67 64 1165.33 128 1181.33 170.7C1198 213 1214.67 235 1230.67 224C1247.2 213 1264 171 1280 138.7C1296.4 107 1313.33 85 1329.33 112C1345.6 139 1362.67 213 1378.67 213.3C1394.93 213 1410.67 139 1428 122.7C1444.13 107 1460 149 1477.33 138.7C1493.33 128 1509.33 64 1526.67 58.7C1542.53 53 1558.67 107 1576 117.3C1591.73 128 1608 96 1624 69.3C1641.07 43 1657.33 21 1673.33 32C1690.27 43 1706.67 85 1722.67 112C1739.47 139 1756 149 1772 154.7C1788.67 160 1805.33 160 1821.33 186.7C1838 213 1854.67 267 1870.67 250.7C1887.2 235 1904 149 1912 106.7L1920 64V0H1911.73C1903.6 0 1886.67 0 1870.67 0C1854.4 0 1837.33 0 1821.33 0C1805.07 0 1789.33 0 1772 0C1755.87 0 1740 0 1722.67 0C1706.67 0 1690.67 0 1673.33 0C1657.47 0 1641.33 0 1624 0C1608.27 0 1592 0 1576 0C1558.93 0 1542.67 0 1526.67 0C1509.73 0 1493.33 0 1477.33 0C1460.53 0 1444 0 1428 0C1411.33 0 1394.67 0 1378.67 0C1362 0 1345.33 0 1329.33 0C1312.8 0 1296 0 1280 0C1263.6 0 1246.67 0 1230.67 0C1214.4 0 1197.33 0 1181.33 0C1165.07 0 1149.33 0 1132 0C1115.87 0 1100 0 1082.67 0C1066.67 0 1050.67 0 1033.33 0C1017.47 0 1001.33 0 984 0C968.267 0 952 0 936 0C918.933 0 902.667 0 886.667 0C869.733 0 853.333 0 837.333 0C820.533 0 804 0 788 0C771.333 0 754.667 0 738.667 0C722 0 705.333 0 689.333 0C672.8 0 656 0 640 0C623.6 0 606.667 0 590.667 0C574.4 0 557.333 0 541.333 0C525.067 0 509.333 0 492 0C475.867 0 460 0 442.667 0C426.667 0 410.667 0 393.333 0C377.467 0 361.333 0 344 0C328.267 0 312 0 296 0C278.933 0 262.667 0 246.667 0C229.733 0 213.333 0 197.333 0C180.533 0 164 0 148 0C131.333 0 114.667 0 98.6667 0C82 0 65.3333 0 49.3333 0C32.8 0 16 0 8 0H0V64Z" fill="#F3F3F3"/>
</svg>
